<?xml version="1.0" encoding="utf-8"?>
<!-- Generator: Adobe Illustrator 22.0.1, SVG Export Plug-In . SVG Version: 6.00 Build 0)  -->
<svg version="1.1"
	 id="Layer_1" xmlns:cc="http://creativecommons.org/ns#" xmlns:dc="http://purl.org/dc/elements/1.1/" xmlns:rdf="http://www.w3.org/1999/02/22-rdf-syntax-ns#"
	 xmlns="http://www.w3.org/2000/svg" xmlns:xlink="http://www.w3.org/1999/xlink" x="0px" y="0px" viewBox="0 0 962 962.7"
	 style="enable-background:new 0 0 962 962.7;" xml:space="preserve">
<style type="text/css">
	.st0{fill:#FFFFFF;}
	.st1{stroke:#000000;stroke-width:0.8;}
	.st2{fill:#FBC412;stroke:#000000;stroke-width:0.8231;}
	.st3{fill:#EF6945;}
	.st4{fill:#16B087;}
</style>
<g>
	<path class="st0" d="M417.8,173v0.2h19.3v8.7h-31.3v-8.2l13.6-13c2.7-2.6,4.7-4.8,5.8-6.6c1.1-1.8,1.7-3.7,1.7-5.6
		c0-4.4-2.4-6.6-7.1-6.6c-4.1,0-8,1.6-11.8,4.9v-9.2c4.1-2.7,8.8-4,14-4c4.9,0,8.7,1.2,11.4,3.7c2.7,2.4,4.1,5.8,4.1,9.9
		c0,5.6-3.3,11.3-10,17.2L417.8,173z"/>
	<path class="st0" d="M460.6,182.8c-11.3,0-17-8-17-23.9c0-8.3,1.5-14.5,4.6-18.9c3.1-4.3,7.5-6.5,13.3-6.5
		c11.1,0,16.6,8.1,16.6,24.3c0,8.1-1.5,14.2-4.5,18.5C470.6,180.6,466.2,182.8,460.6,182.8z M461.1,141.5c-4.5,0-6.8,5.7-6.8,17.1
		c0,10.7,2.2,16.1,6.7,16.1c4.3,0,6.5-5.5,6.5-16.6C467.4,147.1,465.3,141.5,461.1,141.5z"/>
	<path class="st0" d="M516.2,181.9H486v-8.3h9.9V144l-10.1,2.2v-8.5l20.6-4.2v40.1h9.8V181.9z"/>
	<path class="st0" d="M531.8,157.2V157c-5.4-2.2-8.2-5.9-8.2-10.9c0-3.7,1.5-6.7,4.4-9.1c2.9-2.4,6.7-3.6,11.3-3.6
		c4.7,0,8.5,1.1,11.3,3.3c2.8,2.2,4.2,5.1,4.2,8.6c0,5.2-3,9-9,11.5v0.1c3.2,1,5.7,2.5,7.5,4.7c1.8,2.2,2.7,4.6,2.7,7.4
		c0,4.2-1.6,7.5-4.7,10c-3.1,2.4-7.5,3.7-13,3.7c-4.8,0-8.7-1.2-11.7-3.6c-3-2.4-4.4-5.5-4.4-9.4
		C522.2,164.1,525.4,159.9,531.8,157.2z M538.8,161.2c-4.4,1.7-6.7,4.4-6.7,8c0,1.7,0.7,3.2,2,4.3s3,1.7,5,1.7
		c2.1,0,3.8-0.6,5.1-1.7c1.3-1.1,1.9-2.6,1.9-4.4C546.2,165.5,543.7,162.9,538.8,161.2z M545,146.4c0-1.6-0.5-2.9-1.5-3.9
		s-2.4-1.4-4.1-1.4c-1.7,0-3,0.5-4.1,1.5c-1.1,1-1.6,2.3-1.6,3.9c0,3,1.9,5.2,5.7,6.7C543.1,151.6,545,149.3,545,146.4z"/>
</g>
<path class="st0" d="M120.5,789.5c-10.2-0.1-12.7-6.4-18.6-14l-30.5-44c-29.8-47.7-50.5-101.9-61.5-157c-3.6-18.2-6.2-36.5-7.5-55
	l-0.9-10l-1-21v-17l1-20l0.9-10c2.9-41.5,11.8-82.8,25.8-122c50.6-142.3,166.1-253.1,310.3-298c36.2-11.3,73.3-17.5,111-20.1l12-0.9
	h41l10,0.9c22.3,1.5,44,4.3,66,8.7c156.9,31.4,288.6,143.4,348.4,291.4c19.9,49.3,33,107.8,33.6,161l1,15l-1,30l-0.9,10
	c-1.3,19.2-3.9,38.1-7.7,57C941,629,920,684.3,890.5,731.5l-30.6,44c-5.1,6.5-8.5,13.8-17.3,14h-8l24.6-32
	c13-17.4,24.7-35.9,35.1-55c22.5-41.7,38.2-86.6,47.5-133c3-15.2,7.6-45,7.8-60l1-19v-20l-1-19c-0.2-13.8-4.5-42.9-7.2-57
	c-8.1-42.3-21.3-82.4-40.5-121C875,220,839.9,172.8,795.5,132.7c-65.7-59.5-147.6-99.8-235-114.9c-21.1-3.7-43.6-6.2-65-6.2l-16-1
	l-8,0.9h-15l-10,0.9l-35,3.8c-39.6,5.7-78.3,17-115,32.7c-53.1,22.6-101.4,55.8-143,95.6l-16.1,17c-38.5,41.4-64.1,81.7-87.2,133
	c-22.2,49.3-35.4,106.1-37.7,160l-1,11v28l1,13c3,69.2,23.3,138.5,56.9,199c8.9,16,21.6,36.4,32.5,51l25.6,33L120.5,789.5
	L120.5,789.5z M134.6,788.9c-3.5-1.4-10.2-10.2-12.8-13.4c-11.3-13.7-24.1-30.9-33.4-46c-32.5-52.3-53.1-103.4-64.4-164
	c-3.3-17.6-5.3-35.1-6.5-53l-0.9-10v-42l0.9-12c2.4-35.5,8.5-69.9,18.8-104C78,205.9,185.7,93.2,321.5,43.6
	c38.5-14,79.2-23.3,120-26.1l10-0.9l19-1h21l19,1l10,0.9c25.8,1.8,51,6.5,76,12.7c134.2,33.5,249,129.7,306.7,255.4
	c22.8,49.6,35.1,97.9,40.5,152l1.8,25v38l-0.9,10c-1.6,23.7-4.5,46.8-9.7,70c-11.5,52.3-33,106.3-62.7,151
	c-10.1,15.2-20.4,30-32.1,44c-2.6,3.2-9.4,12-12.8,13.4c-1.8,0.7-4.9,0.6-6.8,0.6l23.1-29c15.4-20.2,27.7-38.8,40-61
	c24.8-44.7,41.6-94.6,49.9-145l5-46l0.9-12v-34l-1-11c-2.3-52.1-16.1-105.2-36.8-153c-22.1-51.2-53.8-98.6-93.3-138l-20-19.8
	c-39.6-35.8-85.7-64.9-135-85.2c-157.2-64.7-341.2-35.1-470,76.3c-45.4,39.3-80.1,82.9-108.7,135.7c-22.3,41.3-38.7,91.7-46.4,138
	c-2.5,15.1-5.9,41.1-5.9,56v40l0.9,10l5,44c10.1,60.9,31.9,116.6,64.5,169c9.1,14.6,19.3,28.6,30,42c5,6.3,15.1,17.1,18.5,23
	C139.5,789.5,136.4,789.6,134.6,788.9L134.6,788.9z"/>
<path d="M230.4,814.6c5.8,4.9,4.3,14.6-2.9,17.4c-11.5,4.5-20.4-12.3-8-19.1C223.5,812,227.1,811.8,230.4,814.6L230.4,814.6z
	 M106.5,826.9c1.9-2.5,12.7-5.2,16-5.7v25h19v14h-19v40c0.1,5.3,0.9,11.2,6,14c4.2,2.3,9.6,0,14-1c0,2.8,0.5,12.3-1,14.3
	c-1.4,1.7-5.9,2.2-8,2.5c-8.8,1.1-19.8-0.5-24.8-8.7c-3-5-4.1-14.2-4.2-20v-41h-16v-14h17C105.5,842.7,104.8,829.2,106.5,826.9
	L106.5,826.9z M202.5,845.2l-1,16.8c-4.1-0.3-7.9-1.2-12,0c-7.6,1.6-12.6,8.9-14.3,16.2c-1,4.5-0.7,13.1-0.7,18v32h-18v-82h16l1,11
	C179.5,844.5,190.3,843.6,202.5,845.2L202.5,845.2z M291.5,844.2c20.7,0.2,32.8,17.5,33,37v9c-0.2,13.7-6.2,29.6-19,36.2
	c-3.8,1.9-7.8,2.6-12,3.2c-4.7,0.7-9.5,0.2-14-1.2c-6.3-1.9-9.4-4.7-14-9.2v43h-18v-116h16v11C272.5,847.4,278.2,844,291.5,844.2
	L291.5,844.2z M232.5,846.2v82h-18v-82H232.5z M265.5,890.2c0.2,13.8,8.4,27.5,24,24.7c9.6-1.7,14.4-10.9,16.2-19.7
	c2.3-11.4,0.1-30-12.2-35c-3.5-1.4-8.3-1.1-12-0.7C266.7,863.5,265.4,877.3,265.5,890.2L265.5,890.2z"/>
<path class="st0" d="M491,806.4v121h-16l-1-12c-9.4,17.3-38.5,19.4-52.2-1c-10.6-15.8-10.2-43.5,1-59c12.2-16.8,38.6-15.9,51.2,0
	v-49H491L491,806.4z M600,811.9c13.7,1.8,10,22-3,19.9c-8.8-1.4-13.5-13.5-2-19.9C596.9,811.6,597.8,811.3,600,811.9z M345,855.4
	c0-1.8,0-4,1-5.6c1.9-2.9,10.5-4.9,14-5.5c13-2.3,28.7-2.2,37.6,9.1c4.9,6.2,6.3,14.3,6.4,22v52h-16l-1-10c-5.1,9.9-17.1,11.1-27,11
	c-18.9-0.2-29.6-17.9-22.5-35c1.6-3.9,4.3-7,7.5-9.6c4.1-3.3,9.9-5.3,15-6.4c10.4-2.3,16.6-2,27-2c-0.1-2.9-0.3-5.3-1.6-8
	c-9.3-19.4-32.5-5.3-40.4-3L345,855.4L345,855.4z M760.9,853.5c18,17.4,16.2,57.1-6,70.4c-8.4,5.1-16.5,5.6-26,5.5
	c-28.9-0.3-41.5-26.2-37.2-52c1.2-7.2,2.7-12.9,7-19c6.4-8.9,13.9-12.3,24.2-14.5C736.1,842,751,843.8,760.9,853.5L760.9,853.5z
	 M833,844.4l-1,17c-3.2-0.6-5.7-1.1-9-0.9c-12.9,0.9-17.9,13.7-18,24.9v42h-18v-82h16l1,11C810.6,843.9,820.3,842.7,833,844.4
	L833,844.4z M654,913.7c6.2-2.3,10.3-8.3,5.6-14.2c-6.5-8.2-25.6-10.7-32-24.1c-1.3-2.6-1.5-5.1-1.5-8c-0.2-10.3,4.5-16.6,14-20.5
	c10.7-4.4,27.1-2.6,38,0.5l-1,15c-6.8-1.8-11.5-4.5-19-4.9c-5.8-0.3-17.6,2.9-13.1,10.9c2.6,4.7,10.4,7.7,15.1,9.9
	c9.1,4.3,18.6,10.6,20.5,21.1c0.5,2.8,0.5,5.2,0,8c-3.5,19.2-21.6,21.2-37.5,21c-4,0-14.6-1.1-17-4.5c-1.2-1.7-1-4.5-1-6.5v-8
	C634,911,643.6,917.4,654,913.7L654,913.7z M514,845.4c7.6,0.2,7.2,2.5,11.2,11c3.4,7.2,13.3,27.6,14.8,34h2l15.3-32l7.1-12l17.6-1
	l-11.8,25l-28.2,57h-2l-7.3-15l-23-47l-9.7-20L514,845.4L514,845.4z M607,845.4v82h-17v-82H607z M433,889.4c0.1,11.4,5,23.7,18,24.8
	c10.8,0.9,17.8-6.1,20.8-15.8c1.6-5,1.8-10.8,1.4-16c-1.2-14.9-7.1-26.5-24.1-24.7C433.5,861.5,432.8,876.3,433,889.4z M711.7,899.4
	c3.3,10,12.3,17.4,23.2,15.5c28.6-4.9,26.6-60.9-7-57.2C710.1,862,706.7,884.1,711.7,899.4z M378,888.4c-4.7,0-7.3,0.1-12,1.2
	c-10.6,2.6-18.4,13.8-8.9,22.5c5.9,5.4,17,3.4,22.8-1.3c2.7-2.2,4.4-5.2,5.6-8.4c1.9-4.8,1.5-8.9,1.5-14H378L378,888.4z"/>
<path class="st0" d="M761.6,236.2c3.1-1.8,14.5-3.5,17,0c1.2,1.5,0.3,5.2,0,7.1c-11.8-1.6-14.5,1.1-17,13h10l-1,8h-11l-5,30h-10
	l6-30h-7c1.4-7.3,1.5-7.9,9-8C752.9,249,754.9,240.4,761.6,236.2L761.6,236.2z M237.5,290.6c-1.3,1.8-5.9,3-8,3.5
	c-7.7,2-17.8,1.6-25-1.8c-12.2-5.7-16.3-18.5-14.8-31.1c1.8-14.9,14.4-23.8,28.8-24c4.6,0,16.4,0.1,18.4,5.2c1,2.6-0.5,7.2-1.4,9.8
	c-7.8-3.3-17.1-6.6-25-1.3c-11.9,8-11.1,26.8,3,32c8.6,3.2,15.8-0.9,24-2.7C237.6,282.7,238.6,289,237.5,290.6L237.5,290.6z
	 M528.5,290c-1.3,2.3-4.6,3.2-6.9,4c-6.5,1.7-14.5,1.9-21,0c-12.7-3.3-19.8-12.6-20-25.7c-0.2-14.2,5.3-25.8,20-29.8
	c5.9-1.6,15.1-1.7,21,0c2.4,0.7,5.4,1.5,6.4,4.1c1,2.6-0.5,7.2-1.4,9.8c-7.5-3-16.2-6.4-24-1.9c-17.1,9.8-9.4,35,10,33.8
	c5.5-0.3,10.7-2.7,15.9-3.9C528.6,282.5,529.2,288.5,528.5,290z M284.6,238.3v10h-26v12h23v11h-23v13h27v10h-39v-56H284.6z
	 M332.6,248.3c1.2,2.7,1.9,6.1,1.6,9c-0.8,7.9-5.6,11-6.6,14c-0.9,3,1.4,5.7,2.9,8c3.2,4.9,6.9,9.5,9,15l-13.4-1l-12.8-18l-6.8-1v20
	h-12v-56C306.8,238.3,326.6,234.9,332.6,248.3L332.6,248.3z M385.6,238.3v10h-17v46h-13v-46h-18v-10H385.6z M404.6,238.3v56h-12v-56
	H404.6z M452.6,238.3v10h-25v14h22v10h-22v22h-12v-56H452.6z M472.6,238.3v56h-12v-56H472.6z M549.7,251.3
	c4.5-11.6,3.6-12.9,10.8-13h8l21,56h-13c-0.7-3.3-2.6-11.1-5.4-13c-2.2-1.5-10.6-1.1-13.6-1c-1.5,0-3.5,0-4.9,0.6
	c-5.3,2.2-4.5,10-7.8,12.4c-1.9,1.4-8.7,1-11.3,1C534.8,286.2,546.1,260.8,549.7,251.3z M633.6,238.3v10h-18v46h-12v-46h-18v-10
	H633.6z M677.6,238.3v10h-26v12h23v11h-23v13h27v10h-39v-56H677.6z M318.4,262.9c4.7-2.9,5-10.5,0-13.4c-2.7-1.6-8.6-1.2-11.8-1.2
	v16C310.1,264.3,315.3,264.7,318.4,262.9z M553.6,270.3h15l-7-20L553.6,270.3z M729.5,291.7c-4.7,3.4-8.4,3.8-14,3.6
	c-13.6-0.4-18.8-13.2-14.9-25c2.8-8.3,7.8-12,15.9-14.5C740.2,252,746,279.7,729.5,291.7z M708.8,276.3c-0.5,6.4,4,12,10.8,10.4
	c11.8-2.7,15.2-24.5-2-22C712.3,266.8,709.2,270.6,708.8,276.3L708.8,276.3z M337.5,391.9c-1.7,2.5-7.2,3.8-10,4.5
	c-10.4,2.5-20.7,2.7-31-0.6c-16.7-5.5-26.9-22.1-25.9-39.5c1.3-23.1,17.8-38.9,40.9-39c7.7,0,12.6,0,20,2.7c2.3,0.8,5.4,1.9,6.2,4.5
	c0.8,2.5-1.4,10.2-2.2,13c-13.2-3.7-25.3-10-38,0c-17.6,14.3-9.3,47.3,18,45.7c9.2-0.5,14.1-3.7,22-5.9
	C337.7,381.1,339.5,388.9,337.5,391.9z M757.6,391.7c-2.3,3.3-11.1,5.1-15,5.7c-14.6,2.5-31.2,0.1-41.8-11.2
	c-17.1-18-12.4-50.7,8.8-63.4c14.1-8.5,34.8-6.8,49,0.5l-3,13.8c-12.5-3.1-24.7-9.3-37,0c-21,15.4-9.2,47.7,17,46.1
	c9.2-0.5,14.1-3.7,22-5.9C757.6,380.7,759.1,389.4,757.6,391.7L757.6,391.7z M186.5,318.3v14h-36v18h32v14h-32v19h37v14h-53v-79
	L186.5,318.3L186.5,318.3z M215.2,318.9l6.3,7.4l12,18l10.7-18l6.5-7.4l17.8-0.6l-18,27l-6.3,11l7,12l19.3,29h-14
	c-7.4-0.1-7.8-3.2-11.7-9l-13.3-20l-13,21l-6.2,7.4l-17.8,0.6l18.4-28l7.8-13l-6.6-12l-17.6-26L215.2,318.9L215.2,318.9z
	 M403.6,318.3v14h-36v18h32v14h-32v19h38v14h-54v-79L403.6,318.3L403.6,318.3z M434.6,318.3v65h35v14h-52v-79H434.6L434.6,318.3z
	 M496.6,318.3v65h35v14h-52v-79H496.6L496.6,318.3z M594.6,318.3v14h-37v18h32v14h-32v19h38v14h-54v-79L594.6,318.3L594.6,318.3z
	 M617.6,318.3c8.9,0.2,11.2,6.4,16.1,13l29.9,40v-53h16v79h-9c-9.1-0.2-11.8-7.3-16.9-14l-29.1-38v52h-16v-79H617.6L617.6,318.3z
	 M823.6,318.3v14h-36v18h32l-1,12.4l-8,1.6h-23v19h37v14h-54v-79L823.6,318.3L823.6,318.3z"/>
<path class="st1" d="M301.7,505.4c2.6,0,5.5,0.1,8-0.7l24-13.4c9.1-4.9,29.9-13.3,40-16.5c22-7.1,59.1-15.1,82-15.3l29-1l19,1
	l10,0.9c28.8,2.3,61.3,9.9,88,20.9l30,14.4c9.2,5,11,8.7,22,8.7h75l-18.8,35c-1.2,2.9-4.3,10.1-4.4,13c0,3.8,9.2,17.2,11.3,22
	c6.7,14.8,11.8,32.6,11.9,49v10c0,29.8-15.2,63-36.1,83.9c-51.1,51.1-141.7,47.5-185.9-10.9l-25,39c-5.1-2.6-7.2-7.4-10.3-12
	l-16.7-26h-2c-3.7,6.9-10,12.2-16,17c-12.7,10.2-23.5,16.5-39,21.7c-31.4,10.5-67.3,8.4-97-6.5c-39.9-20-67.9-63.3-68-108.2
	c0-18.6,2.4-34.8,9.7-52c2.8-6.6,5-10.8,8.7-17c2.2-3.6,5.1-6.5,4.4-11c-1.3-8.3-11.8-27.4-16.4-35c-2.2-3.7-4.7-7.1-6.4-11H301.7
	L301.7,505.4z M551.7,488c-43.4-9.6-86.3-9.9-130-2.7c-14.6,2.4-28.9,6.4-43,11.1c-6.2,2.1-13.8,4-19,8l12,1.3
	c6.4,0.8,15.8,2.8,22,4.7c30.9,9.8,57.8,32.2,72.7,61c4.4,8.5,8.8,19.7,10.8,29c1.2,5.2,1.5,15.1,4.4,19
	c0.4-42.8,33.8-86.2,72-103.1c9.9-4.4,19.3-7.3,30-9.2c4.5-0.8,13.3-1.2,17-2.6C587.1,497.4,566.8,491.3,551.7,488L551.7,488z
	 M774.4,504c7.2,6.5,6.4,22-6.7,25.6c-17.3,4.8-27-20.9-9-28.6C764.2,500,770.1,500.1,774.4,504z M775.1,513.4
	c-1.3-8.2-10-12.2-17.4-7c5.2,0,18.8,0.1,11,9l4,7C774.2,519.5,775.7,516.9,775.1,513.4z M757.7,523.4v-17
	C751.5,512,751.2,518,757.7,523.4z M762.7,510.4v3h3v-3H762.7z M762.7,523.4l-5,1c5.2,2.2,8.4,2.9,13-1c-4.7-0.8-5-1.8-7-6
	L762.7,523.4L762.7,523.4z M331.7,531.9c-27.7,7.8-51.7,26.3-64.1,52.6c-25,52.8-1.4,114.4,53.1,136.4c8.9,3.6,21.4,6.5,31,6.6
	c22.8,0.3,38.1-2.6,58-14.5c8.9-5.3,16.9-12.8,23.7-20.5c8.9-10.2,15.5-23,19.3-36c15.3-52.8-13.8-108-67-123.7
	c-9.4-2.8-24.2-4.9-34-4C344.8,529.7,338.6,529.9,331.7,531.9L331.7,531.9z M543.7,549.3c-9.1,6.9-18.4,17.3-24.4,27.1
	c-23.2,38.1-18.2,88.4,12.5,121c17.9,19,44.9,30.4,70.9,31c13.1,0.3,29-3.2,41-8.3c64.1-27.2,81.1-113.8,30.9-162.5
	c-8.1-7.9-19.5-15.5-29.9-20c-10-4.3-23.1-8-34-8h-18C574,532.6,559,537.7,543.7,549.3L543.7,549.3z M410.4,599.4
	c17.8,35.5-3.4,81.5-43.6,87.7c-16.8,2.6-34.3-0.5-48-11.2c-32.2-25.4-32.7-75.7,2-99.1c8.6-5.8,15-8.1,25-9.9
	C372.6,563.4,397.9,574.5,410.4,599.4L410.4,599.4z M608.7,566.6c6.8-0.1,13.7,1.8,20,4.4c7.4,3.1,12.3,6.8,18,12.4
	c31.4,31.2,21.1,85-21,100.9c-5.3,2-17.4,4.3-23,4c-13.8-0.8-27.3-5.3-38-14.2c-31.1-26-28.3-74.9,5-97.6c7.9-5.4,14.7-7.8,24-9.8
	C598.7,566.2,603.7,566.4,608.7,566.6L608.7,566.6z M326,599.5c-24.8,27.7-2.9,72.6,34.7,67.7c6-0.8,10.8-2.5,16-5.6
	c35.7-20.8,18-78.4-24-74.8C342.2,588.3,333.4,591.2,326,599.5L326,599.5z M567.7,609.4c-12.7,26,5.8,57.3,35,58
	c6.5,0.1,11-0.7,17-3.1c5.4-2.1,8.9-4.8,13-8.9c26.1-26.8,5.4-71.9-32-68.7C586.2,589.1,574.4,595.7,567.7,609.4z"/>
<path class="st2" d="M453.1,481.3l12-1h33.1c11.5,0.1,32.7,3.1,44.2,5.5c12.7,2.6,24.9,6.1,37.2,10.3c5.6,2,14.4,4.9,19.1,8.4
	c-9.1,1.3-18.3,2.2-27.1,5c-31.3,9.8-59.3,32.1-75,62.5c-4.9,9.6-8.1,16.9-10.9,27.4l-4.4,19l-2.7-12.7c-2-9.1-5-17.9-8.7-26.4
	c-13-29.5-37.7-52.9-66-65.5c-7.1-3.2-18.5-6.5-26.1-7.8l-16.1-2.6C391.1,491.3,421.6,483.6,453.1,481.3L453.1,481.3z"/>
<path class="st0" d="M348.3,726.5c-3.3-0.2-10.6-1.5-15.7-2.8c-13-3.3-26.7-10.2-37.6-19c-5.1-4.1-13.3-12.6-16.9-17.6
	c-6.4-8.7-12.4-20.6-15.3-30.6c-3.4-11.7-3.8-14.7-3.8-28.5c0-11.8,0.1-13,1.4-19.2c6.9-32.5,26.4-57,56.7-70.8
	c15.1-6.9,32.8-9.9,49.3-8.2c23.8,2.4,44.4,12,60.8,28.5c18.6,18.6,28.7,43.1,28.7,69.2c0,25.7-8.4,48-24.8,66.3
	c-15,16.6-34.4,27.7-54.9,31.2C368.1,726.4,356.4,727,348.3,726.5L348.3,726.5z M361.7,688.2c14.1-0.7,27-6.6,37.2-16.9
	c7-7,11.8-14.8,15-24.5c2.3-6.9,3.3-13,3.3-20.3c0-30.4-21-55.3-50.7-60.1c-6.1-1-17.2-1-22.6,0c-14.3,2.7-27.7,10.5-36.6,21.5
	c-9.5,11.8-13.9,25.6-13.2,41.2c0.7,16.1,6.8,30.2,18,41.6c8,8.2,15.8,12.8,25.9,15.6c5.6,1.5,13.4,2.5,17.3,2.2
	C356.2,688.6,359.1,688.4,361.7,688.2L361.7,688.2z"/>
<path class="st0" d="M347.3,665.9c-17.1-3.8-29.6-18.8-30.9-36.9c-0.8-11.5,4-23.5,12.6-31.4c9.7-9,26.6-12.6,39-8.5
	c10.9,3.7,19.6,12,24,23.3c2.3,5.9,2.8,8.6,2.8,15.9c0,5.7-0.2,7.4-1.2,10.6c-4,12.9-14.8,23-28.4,26.5
	C360.4,666.7,351.7,666.9,347.3,665.9L347.3,665.9z"/>
<path class="st0" d="M597.4,727.3c-17.7-1.6-34.7-7.6-49.5-17.4c-22.7-15.2-38.1-40.9-41.6-69.5c-0.8-6.5-0.4-22.8,0.8-28.9
	c5-27,20-50.1,42.3-65.1c10.2-6.8,22.6-11.8,36.6-14.7c6.3-1.3,6.8-1.3,19.9-1.1c14.9,0.3,18.8,0.9,30.1,4.6
	c15.2,5.1,27.7,13,39.6,25c14.7,14.8,23.3,31.9,26.6,53.1c1.1,7.1,1.1,21.1,0,28.5c-4.4,28.9-19.6,53.4-42.8,69
	c-13.4,9-31.5,15.2-48.7,16.6C604,727.9,604,727.9,597.4,727.3L597.4,727.3L597.4,727.3z M612.7,688.2c14.2-2.3,24.2-7,33.6-15.8
	c11.5-10.8,18.1-24.8,19.1-40.8c0.8-12.7-1.5-23.6-7.5-34.5c-5.7-10.4-14.5-19.3-24.4-24.6c-9.3-5-18.1-6.8-32.3-6.8
	c-7.4,0-9.6,0.4-17.3,2.9c-17.5,5.7-31.9,20.1-38.2,38.3c-2.5,7.2-3.2,11.9-3.2,20.5c0,17,5.4,30.6,16.9,42.6
	C573,684.2,593.8,691.3,612.7,688.2L612.7,688.2z"/>
<path class="st0" d="M599.8,666.5c-0.7-0.1-2.6-0.5-4.2-0.8c-13.6-2.5-25.6-14-29.8-28.6c-1.4-5.1-1.6-14.9-0.3-19.6
	c3.1-11.1,10.5-20.4,20.2-25.1c2.6-1.3,7-2.9,9.9-3.6c4.6-1.2,5.9-1.3,10.9-1.1c10.3,0.5,18.3,4.3,25.7,12
	c7.3,7.7,11.1,16.8,11.1,27.2c0,11.2-3.7,20.2-12.1,28.5c-5.3,5.3-9.1,7.6-16.1,9.6C610.8,666.2,602.9,667,599.8,666.5L599.8,666.5z
	"/>
<path class="st3" d="M372.9,614.3c8.7,11.6,2.1,30.1-12.4,32.6c-14.6,2.6-24.4-7.3-24-21.7c0.1-4.7,1.3-8.3,4.4-11.9
	c3.6-4.2,7.4-5.5,12.6-6.6C360.6,605.9,368.4,608.4,372.9,614.3L372.9,614.3z"/>
<path class="st4" d="M621.1,615.6c8.8,11.6,2.1,30.1-12.4,32.6c-14.6,2.6-24.4-7.3-24-21.7c0.1-4.7,1.3-8.3,4.4-11.9
	c3.6-4.2,7.4-5.5,12.6-6.6C608.9,607.2,616.7,609.7,621.1,615.6L621.1,615.6z"/>
</svg>
