<?xml version="1.0" encoding="UTF-8" standalone="no"?>
<!-- Created with Inkscape (http://www.inkscape.org/) -->

<svg
   xmlns:dc="http://purl.org/dc/elements/1.1/"
   xmlns:cc="http://creativecommons.org/ns#"
   xmlns:rdf="http://www.w3.org/1999/02/22-rdf-syntax-ns#"
   xmlns:svg="http://www.w3.org/2000/svg"
   xmlns="http://www.w3.org/2000/svg"
   xmlns:sodipodi="http://sodipodi.sourceforge.net/DTD/sodipodi-0.dtd"
   xmlns:inkscape="http://www.inkscape.org/namespaces/inkscape"
   width="187.58667"
   height="66.302879"
   viewBox="0 0 49.632306 17.542638"
   version="1.1"
   id="svg8"
   inkscape:version="0.92.3 (2405546, 2018-03-11)"
   sodipodi:docname="logo-pathless.svg"
   inkscape:export-filename="/home/adam/Documents/InsiderLondon/logos/logo.png"
   inkscape:export-xdpi="90"
   inkscape:export-ydpi="90">
  <defs
     id="defs2" />
  <sodipodi:namedview
     id="base"
     pagecolor="#ffffff"
     bordercolor="#666666"
     borderopacity="1.0"
     inkscape:pageopacity="0.0"
     inkscape:pageshadow="2"
     inkscape:zoom="2.8284271"
     inkscape:cx="154.01253"
     inkscape:cy="-4.4593786"
     inkscape:document-units="px"
     inkscape:current-layer="layer2"
     showgrid="true"
     units="px"
     fit-margin-top="0"
     fit-margin-left="0"
     fit-margin-right="0"
     fit-margin-bottom="0"
     showguides="true"
     inkscape:snap-global="true"
     inkscape:window-width="1853"
     inkscape:window-height="1016"
     inkscape:window-x="67"
     inkscape:window-y="27"
     inkscape:window-maximized="1"
     borderlayer="true"
     inkscape:snap-nodes="false">
    <inkscape:grid
       type="xygrid"
       id="grid4573"
       originx="-3.4516017"
       originy="-26.648339" />
  </sodipodi:namedview>
  <metadata
     id="metadata5">
    <rdf:RDF>
      <cc:Work
         rdf:about="">
        <dc:format>image/svg+xml</dc:format>
        <dc:type
           rdf:resource="http://purl.org/dc/dcmitype/StillImage" />
        <dc:title></dc:title>
      </cc:Work>
    </rdf:RDF>
  </metadata>
  <g
     inkscape:groupmode="layer"
     id="layer3"
     inkscape:label="Layer 3"
     style="display:inline"
     transform="translate(-3.4515998,-19.309032)">
    <path
       style="opacity:1;fill:#ffffff;fill-opacity:1;stroke:#192e51;stroke-width:0;stroke-linejoin:miter;stroke-miterlimit:4;stroke-dasharray:none;stroke-opacity:1"
       d="M 0.83004135,16.865709 H 55.700925 V 39.280302 H 0.83004135 Z"
       id="rect4712"
       inkscape:connector-curvature="0" />
  </g>
  <g
     inkscape:label="Layer 1"
     inkscape:groupmode="layer"
     id="layer1"
     transform="translate(-3.4515998,-252.80902)"
     style="display:inline">
    <g
       aria-label="INSIDER"
       style="font-style:normal;font-weight:normal;font-size:10.58333302px;line-height:125%;font-family:Sans;letter-spacing:0px;word-spacing:0px;fill:#000000;fill-opacity:1;stroke:none;stroke-width:0.26458332px;stroke-linecap:butt;stroke-linejoin:miter;stroke-opacity:1"
       id="text12"
       transform="translate(0.46772168,-5.7062046)">
      <path
         d="M 6.3470011,266.73059 H 4.9076677 v -6.16797 h 1.4393334 z"
         style="font-style:normal;font-variant:normal;font-weight:900;font-stretch:normal;font-size:8.46666718px;font-family:Lato;-inkscape-font-specification:'Lato, Heavy';font-variant-ligatures:normal;font-variant-caps:normal;font-variant-numeric:normal;font-feature-settings:normal;text-align:start;letter-spacing:2.11666656px;word-spacing:0px;writing-mode:lr-tb;text-anchor:start;fill:#192e51;fill-opacity:1;stroke:#192e51;stroke-width:0.26458332px;stroke-opacity:1"
         id="path4678"
         inkscape:connector-curvature="0" />
      <path
         d="m 10.407165,260.56262 q 0.09313,0 0.156633,0.008 0.0635,0.008 0.1143,0.0339 0.0508,0.0212 0.09737,0.0635 0.04657,0.0423 0.105833,0.1143 l 2.929467,3.70416 q -0.01693,-0.1778 -0.0254,-0.3429 -0.0085,-0.16933 -0.0085,-0.3175 v -3.2639 h 1.261534 v 6.16797 h -0.745067 q -0.1651,0 -0.2794,-0.0508 -0.110067,-0.055 -0.220133,-0.18627 l -2.908301,-3.67453 q 0.0127,0.16087 0.02117,0.3175 0.0085,0.1524 0.0085,0.28787 v 3.30623 H 9.6536313 v -6.16797 h 0.7535337 z"
         style="font-style:normal;font-variant:normal;font-weight:900;font-stretch:normal;font-size:8.46666718px;font-family:Lato;-inkscape-font-specification:'Lato, Heavy';font-variant-ligatures:normal;font-variant-caps:normal;font-variant-numeric:normal;font-feature-settings:normal;text-align:start;letter-spacing:2.11666656px;word-spacing:0px;writing-mode:lr-tb;text-anchor:start;fill:#192e51;fill-opacity:1;stroke:#192e51;stroke-width:0.26458332px;stroke-opacity:1"
         id="path4680"
         inkscape:connector-curvature="0" />
      <path
         d="m 21.759643,261.81569 q -0.0635,0.1016 -0.135467,0.1524 -0.06773,0.0508 -0.1778,0.0508 -0.09737,0 -0.211667,-0.0593 -0.110066,-0.0635 -0.254,-0.1397 -0.1397,-0.0762 -0.321733,-0.13546 -0.182033,-0.0635 -0.414867,-0.0635 -0.402167,0 -0.601133,0.17356 -0.194734,0.16934 -0.194734,0.46144 0,0.18626 0.118534,0.30903 0.118533,0.12277 0.309033,0.21167 0.194734,0.0889 0.440267,0.1651 0.249767,0.072 0.508,0.1651 0.258233,0.0889 0.503767,0.21166 0.249766,0.12277 0.440266,0.31327 0.194734,0.1905 0.313267,0.46567 0.118533,0.27093 0.118533,0.65616 0,0.42757 -0.148166,0.8001 -0.148167,0.37254 -0.4318,0.65194 -0.2794,0.27516 -0.694267,0.43603 -0.410633,0.15663 -0.935567,0.15663 -0.287867,0 -0.588433,-0.0593 -0.296334,-0.0593 -0.575734,-0.1651 -0.2794,-0.11007 -0.524933,-0.25824 -0.245533,-0.14816 -0.427567,-0.3302 l 0.423334,-0.66886 q 0.0508,-0.072 0.131233,-0.11854 0.08467,-0.0508 0.182033,-0.0508 0.127,0 0.254,0.0804 0.131234,0.0804 0.2921,0.1778 0.1651,0.0974 0.376767,0.1778 0.211667,0.0804 0.499534,0.0804 0.389466,0 0.605366,-0.16933 0.2159,-0.17357 0.2159,-0.5461 0,-0.2159 -0.118533,-0.35137 -0.118533,-0.13547 -0.313267,-0.22437 -0.1905,-0.0889 -0.436033,-0.15663 -0.245534,-0.0677 -0.503767,-0.14817 -0.258233,-0.0847 -0.503767,-0.2032 -0.245533,-0.12276 -0.440266,-0.3175 -0.1905,-0.19896 -0.309034,-0.49106 -0.118533,-0.29634 -0.118533,-0.72814 0,-0.34713 0.1397,-0.67733 0.1397,-0.3302 0.410633,-0.58843 0.270934,-0.25824 0.664634,-0.41064 0.3937,-0.15663 0.9017,-0.15663 0.283633,0 0.550333,0.0466 0.270934,0.0423 0.512234,0.13123 0.2413,0.0847 0.448733,0.20743 0.211667,0.11854 0.376767,0.27094 z"
         style="font-style:normal;font-variant:normal;font-weight:900;font-stretch:normal;font-size:8.46666718px;font-family:Lato;-inkscape-font-specification:'Lato, Heavy';font-variant-ligatures:normal;font-variant-caps:normal;font-variant-numeric:normal;font-feature-settings:normal;text-align:start;letter-spacing:2.11666656px;word-spacing:0px;writing-mode:lr-tb;text-anchor:start;fill:#192e51;fill-opacity:1;stroke:#192e51;stroke-width:0.26458332px;stroke-opacity:1"
         id="path4682"
         inkscape:connector-curvature="0" />
      <path
         d="M 26.604163,266.73059 H 25.16483 v -6.16797 h 1.439333 z"
         style="font-style:normal;font-variant:normal;font-weight:900;font-stretch:normal;font-size:8.46666718px;font-family:Lato;-inkscape-font-specification:'Lato, Heavy';font-variant-ligatures:normal;font-variant-caps:normal;font-variant-numeric:normal;font-feature-settings:normal;text-align:start;letter-spacing:2.11666656px;word-spacing:0px;writing-mode:lr-tb;text-anchor:start;fill:#192e51;fill-opacity:1;stroke:#192e51;stroke-width:0.26458332px;stroke-opacity:1"
         id="path4684"
         inkscape:connector-curvature="0" />
      <path
         d="m 35.507261,263.64449 q 0,0.66887 -0.232834,1.23613 -0.2286,0.56304 -0.6477,0.9779 -0.4191,0.41064 -1.011766,0.64347 -0.588434,0.2286 -1.3081,0.2286 h -2.396067 v -6.16797 h 2.396067 q 0.719666,0 1.3081,0.23284 0.592666,0.23283 1.011766,0.64346 0.4191,0.41064 0.6477,0.9779 0.232834,0.56304 0.232834,1.22767 z m -1.464734,0 q 0,-0.4572 -0.118533,-0.8255 -0.118533,-0.3683 -0.3429,-0.6223 -0.220133,-0.25823 -0.541867,-0.3937 -0.321733,-0.1397 -0.732366,-0.1397 h -0.956734 v 3.96663 h 0.956734 q 0.410633,0 0.732366,-0.13546 0.321734,-0.1397 0.541867,-0.3937 0.224367,-0.25824 0.3429,-0.62654 0.118533,-0.3683 0.118533,-0.82973 z"
         style="font-style:normal;font-variant:normal;font-weight:900;font-stretch:normal;font-size:8.46666718px;font-family:Lato;-inkscape-font-specification:'Lato, Heavy';font-variant-ligatures:normal;font-variant-caps:normal;font-variant-numeric:normal;font-feature-settings:normal;text-align:start;letter-spacing:2.11666656px;word-spacing:0px;writing-mode:lr-tb;text-anchor:start;fill:#192e51;fill-opacity:1;stroke:#192e51;stroke-width:0.26458332px;stroke-opacity:1"
         id="path4686"
         inkscape:connector-curvature="0" />
      <path
         d="m 42.447546,260.56262 v 1.10067 h -2.531533 v 1.43933 h 1.938867 v 1.05834 h -1.938867 v 1.46896 h 2.531533 v 1.10067 h -3.970867 v -6.16797 z"
         style="font-style:normal;font-variant:normal;font-weight:900;font-stretch:normal;font-size:8.46666718px;font-family:Lato;-inkscape-font-specification:'Lato, Heavy';font-variant-ligatures:normal;font-variant-caps:normal;font-variant-numeric:normal;font-feature-settings:normal;text-align:start;letter-spacing:2.11666656px;word-spacing:0px;writing-mode:lr-tb;text-anchor:start;fill:#192e51;fill-opacity:1;stroke:#192e51;stroke-width:0.26458332px;stroke-opacity:1"
         id="path4688"
         inkscape:connector-curvature="0" />
      <path
         d="m 46.869395,264.44882 v 2.28177 h -1.430866 v -6.16797 h 2.0066 q 0.668866,0 1.138766,0.1397 0.474134,0.13547 0.770467,0.381 0.300567,0.24554 0.436034,0.57997 0.135466,0.33443 0.135466,0.72813 0,0.30057 -0.08043,0.56727 -0.08043,0.2667 -0.2413,0.4953 -0.156634,0.22437 -0.389467,0.40217 -0.2286,0.1778 -0.529167,0.2921 0.143934,0.072 0.2667,0.18203 0.122767,0.10583 0.220134,0.254 l 1.312333,2.1463 h -1.2954 q -0.359833,0 -0.516467,-0.27093 l -1.024466,-1.7907 q -0.07197,-0.1143 -0.160867,-0.1651 -0.0889,-0.055 -0.254,-0.055 z m 0,-0.98636 h 0.575734 q 0.2921,0 0.4953,-0.072 0.207433,-0.0762 0.338666,-0.20743 0.131234,-0.13124 0.1905,-0.3048 0.05927,-0.1778 0.05927,-0.381 0,-0.4064 -0.2667,-0.635 -0.262467,-0.2286 -0.817033,-0.2286 h -0.575734 z"
         style="font-style:normal;font-variant:normal;font-weight:900;font-stretch:normal;font-size:8.46666718px;font-family:Lato;-inkscape-font-specification:'Lato, Heavy';font-variant-ligatures:normal;font-variant-caps:normal;font-variant-numeric:normal;font-feature-settings:normal;text-align:start;letter-spacing:2.11666656px;word-spacing:0px;writing-mode:lr-tb;text-anchor:start;fill:#192e51;fill-opacity:1;stroke:#192e51;stroke-width:0.26458332px;stroke-opacity:1"
         id="path4690"
         inkscape:connector-curvature="0" />
    </g>
    <rect
       style="opacity:1;fill:#192e51;fill-opacity:0;stroke:#fcc601;stroke-width:0;stroke-miterlimit:4;stroke-dasharray:none;stroke-opacity:0"
       id="rect4526"
       width="87.577087"
       height="54.504169"
       x="3.4395833"
       y="238.26248" />
    <rect
       style="opacity:1;fill:#192e51;fill-opacity:0;stroke:#fcc601;stroke-width:0;stroke-miterlimit:4;stroke-dasharray:none;stroke-opacity:0"
       id="rect4530"
       width="87.577087"
       height="54.504181"
       x="3.4395833"
       y="238.26248" />
    <rect
       style="opacity:1;fill:#192e51;fill-opacity:0;stroke:#fcc601;stroke-width:0;stroke-miterlimit:4;stroke-dasharray:none;stroke-opacity:0"
       id="rect4532"
       width="87.57708"
       height="54.504181"
       x="3.4395833"
       y="238.26248" />
    <rect
       style="opacity:1;fill:none;fill-opacity:0;stroke:#a35964;stroke-width:0.79374999;stroke-linejoin:round;stroke-miterlimit:4;stroke-dasharray:none;stroke-opacity:0"
       id="rect4557"
       width="95.25"
       height="63.566132"
       x="1.1603038e-06"
       y="233.49998" />
    <g
       aria-label="LONDON"
       style="font-style:normal;font-weight:normal;font-size:10.58333302px;line-height:100%;font-family:Sans;letter-spacing:0px;word-spacing:0px;fill:#000000;fill-opacity:1;stroke:none;stroke-width:0.26458332px;stroke-linecap:butt;stroke-linejoin:miter;stroke-opacity:1"
       id="text4571"
       transform="translate(0.28063301,-0.56126605)">
      <path
         d="m 18.520282,268.11559 h 1.418167 v 0.18415 h -1.636183 v -2.99508 h 0.218016 z"
         style="font-style:normal;font-variant:normal;font-weight:300;font-stretch:normal;font-size:4.23333359px;line-height:100%;font-family:Lato;-inkscape-font-specification:'Lato Light';font-variant-ligatures:normal;font-variant-caps:normal;font-variant-numeric:normal;font-feature-settings:normal;text-align:start;letter-spacing:0.5291667px;writing-mode:lr-tb;text-anchor:start;fill:#192e51;fill-opacity:1;stroke:#192e51;stroke-width:0.26458332px;stroke-opacity:1"
         id="path4709"
         inkscape:connector-curvature="0" />
      <path
         d="m 23.451653,266.80114 q 0,0.34714 -0.103717,0.63077 -0.103716,0.28152 -0.2921,0.4826 -0.188383,0.19897 -0.452966,0.30903 -0.262467,0.10795 -0.579967,0.10795 -0.3175,0 -0.579967,-0.10795 -0.262466,-0.11006 -0.45085,-0.30903 -0.188383,-0.20108 -0.2921,-0.4826 -0.103717,-0.28363 -0.103717,-0.63077 0,-0.34501 0.103717,-0.62653 0.103717,-0.28363 0.2921,-0.4826 0.188384,-0.20108 0.45085,-0.31115 0.262467,-0.11007 0.579967,-0.11007 0.3175,0 0.579967,0.11007 0.264583,0.10795 0.452966,0.30903 0.188384,0.20109 0.2921,0.48472 0.103717,0.28152 0.103717,0.62653 z m -0.224367,0 q 0,-0.31326 -0.08678,-0.56303 -0.08678,-0.24977 -0.245533,-0.42333 -0.15875,-0.17357 -0.381,-0.26459 -0.22225,-0.0931 -0.491067,-0.0931 -0.2667,0 -0.48895,0.0931 -0.22225,0.091 -0.383117,0.26459 -0.15875,0.17356 -0.24765,0.42333 -0.08678,0.24977 -0.08678,0.56303 0,0.31539 0.08678,0.56515 0.0889,0.24765 0.24765,0.42122 0.160867,0.17357 0.383117,0.26458 0.22225,0.091 0.48895,0.091 0.268817,0 0.491067,-0.091 0.22225,-0.091 0.381,-0.26458 0.15875,-0.17357 0.245533,-0.42122 0.08678,-0.24976 0.08678,-0.56515 z"
         style="font-style:normal;font-variant:normal;font-weight:300;font-stretch:normal;font-size:4.23333359px;line-height:100%;font-family:Lato;-inkscape-font-specification:'Lato Light';font-variant-ligatures:normal;font-variant-caps:normal;font-variant-numeric:normal;font-feature-settings:normal;text-align:start;letter-spacing:0.5291667px;writing-mode:lr-tb;text-anchor:start;fill:#192e51;fill-opacity:1;stroke:#192e51;stroke-width:0.26458332px;stroke-opacity:1"
         id="path4711"
         inkscape:connector-curvature="0" />
      <path
         d="m 24.776753,265.30466 q 0.02963,0 0.04445,0.008 0.01693,0.006 0.03598,0.0317 l 1.940984,2.59503 q -0.0063,-0.0635 -0.0063,-0.12277 v -2.51248 h 0.188383 v 2.99508 h -0.1016 q -0.02752,0 -0.04657,-0.008 -0.01693,-0.0106 -0.03387,-0.0339 l -1.945217,-2.59715 q 0.0064,0.0635 0.0064,0.11853 v 2.52095 h -0.1905 v -2.99508 h 0.10795 z"
         style="font-style:normal;font-variant:normal;font-weight:300;font-stretch:normal;font-size:4.23333359px;line-height:100%;font-family:Lato;-inkscape-font-specification:'Lato Light';font-variant-ligatures:normal;font-variant-caps:normal;font-variant-numeric:normal;font-feature-settings:normal;text-align:start;letter-spacing:0.5291667px;writing-mode:lr-tb;text-anchor:start;fill:#192e51;fill-opacity:1;stroke:#192e51;stroke-width:0.26458332px;stroke-opacity:1"
         id="path4713"
         inkscape:connector-curvature="0" />
      <path
         d="m 30.920841,266.80114 q 0,0.34714 -0.103717,0.62442 -0.103716,0.27728 -0.2921,0.47202 -0.188383,0.19473 -0.452966,0.29845 -0.262467,0.10371 -0.579967,0.10371 h -1.094317 v -2.99508 h 1.094317 q 0.3175,0 0.579967,0.10372 0.264583,0.10371 0.452966,0.29845 0.188384,0.19473 0.2921,0.47201 0.103717,0.27729 0.103717,0.6223 z m -0.224367,0 q 0,-0.31326 -0.08678,-0.5588 -0.08678,-0.24553 -0.245533,-0.41486 -0.15875,-0.16934 -0.381,-0.25824 -0.22225,-0.0889 -0.491067,-0.0889 h -0.8763 v 2.64372 h 0.8763 q 0.268817,0 0.491067,-0.0889 0.22225,-0.0889 0.381,-0.25823 0.15875,-0.16934 0.245533,-0.41487 0.08678,-0.24553 0.08678,-0.56092 z"
         style="font-style:normal;font-variant:normal;font-weight:300;font-stretch:normal;font-size:4.23333359px;line-height:100%;font-family:Lato;-inkscape-font-specification:'Lato Light';font-variant-ligatures:normal;font-variant-caps:normal;font-variant-numeric:normal;font-feature-settings:normal;text-align:start;letter-spacing:0.5291667px;writing-mode:lr-tb;text-anchor:start;fill:#192e51;fill-opacity:1;stroke:#192e51;stroke-width:0.26458332px;stroke-opacity:1"
         id="path4715"
         inkscape:connector-curvature="0" />
      <path
         d="m 34.803933,266.80114 q 0,0.34714 -0.103717,0.63077 -0.103717,0.28152 -0.2921,0.4826 -0.188383,0.19897 -0.452967,0.30903 -0.262466,0.10795 -0.579966,0.10795 -0.3175,0 -0.579967,-0.10795 -0.262467,-0.11006 -0.45085,-0.30903 -0.188384,-0.20108 -0.2921,-0.4826 -0.103717,-0.28363 -0.103717,-0.63077 0,-0.34501 0.103717,-0.62653 0.103716,-0.28363 0.2921,-0.4826 0.188383,-0.20108 0.45085,-0.31115 0.262467,-0.11007 0.579967,-0.11007 0.3175,0 0.579966,0.11007 0.264584,0.10795 0.452967,0.30903 0.188383,0.20109 0.2921,0.48472 0.103717,0.28152 0.103717,0.62653 z m -0.224367,0 q 0,-0.31326 -0.08678,-0.56303 -0.08678,-0.24977 -0.245534,-0.42333 -0.15875,-0.17357 -0.381,-0.26459 -0.22225,-0.0931 -0.491066,-0.0931 -0.2667,0 -0.48895,0.0931 -0.22225,0.091 -0.383117,0.26459 -0.15875,0.17356 -0.24765,0.42333 -0.08678,0.24977 -0.08678,0.56303 0,0.31539 0.08678,0.56515 0.0889,0.24765 0.24765,0.42122 0.160867,0.17357 0.383117,0.26458 0.22225,0.091 0.48895,0.091 0.268816,0 0.491066,-0.091 0.22225,-0.091 0.381,-0.26458 0.15875,-0.17357 0.245534,-0.42122 0.08678,-0.24976 0.08678,-0.56515 z"
         style="font-style:normal;font-variant:normal;font-weight:300;font-stretch:normal;font-size:4.23333359px;line-height:100%;font-family:Lato;-inkscape-font-specification:'Lato Light';font-variant-ligatures:normal;font-variant-caps:normal;font-variant-numeric:normal;font-feature-settings:normal;text-align:start;letter-spacing:0.5291667px;writing-mode:lr-tb;text-anchor:start;fill:#192e51;fill-opacity:1;stroke:#192e51;stroke-width:0.26458332px;stroke-opacity:1"
         id="path4717"
         inkscape:connector-curvature="0" />
      <path
         d="m 36.129032,265.30466 q 0.02963,0 0.04445,0.008 0.01693,0.006 0.03598,0.0317 l 1.940983,2.59503 q -0.0064,-0.0635 -0.0064,-0.12277 v -2.51248 h 0.188384 v 2.99508 h -0.1016 q -0.02752,0 -0.04657,-0.008 -0.01693,-0.0106 -0.03387,-0.0339 l -1.945217,-2.59715 q 0.0063,0.0635 0.0063,0.11853 v 2.52095 h -0.1905 v -2.99508 h 0.10795 z"
         style="font-style:normal;font-variant:normal;font-weight:300;font-stretch:normal;font-size:4.23333359px;line-height:100%;font-family:Lato;-inkscape-font-specification:'Lato Light';font-variant-ligatures:normal;font-variant-caps:normal;font-variant-numeric:normal;font-feature-settings:normal;text-align:start;letter-spacing:0.5291667px;writing-mode:lr-tb;text-anchor:start;fill:#192e51;fill-opacity:1;stroke:#192e51;stroke-width:0.26458332px;stroke-opacity:1"
         id="path4719"
         inkscape:connector-curvature="0" />
    </g>
  </g>
  <g
     inkscape:groupmode="layer"
     id="layer2"
     inkscape:label="Layer 2"
     style="display:inline"
     transform="translate(-3.4515998,-19.309032)">
    <rect
       style="opacity:1;fill:#192e51;fill-opacity:0;stroke:#fcc601;stroke-width:0;stroke-miterlimit:4;stroke-dasharray:none;stroke-opacity:0"
       id="rect4547"
       width="32.014584"
       height="31.485416"
       x="6.8791666"
       y="10.318749" />
    <path
       sodipodi:type="star"
       style="opacity:1;fill:none;fill-opacity:0;stroke:#a35964;stroke-width:0.79374999;stroke-linejoin:round;stroke-miterlimit:4;stroke-dasharray:none;stroke-opacity:0"
       id="path4559"
       sodipodi:sides="5"
       sodipodi:cx="13.49375"
       sodipodi:cy="5.0270834"
       sodipodi:r1="39.137772"
       sodipodi:r2="19.568884"
       sodipodi:arg1="0.74236255"
       sodipodi:arg2="1.3706811"
       inkscape:flatsided="false"
       inkscape:rounded="0"
       inkscape:randomized="0"
       d="M 42.333335,31.485418 17.383697,24.205444 -2.7577004,40.631234 -3.5438958,14.653082 -25.389784,0.57332358 -0.92604132,-8.2020831 5.7138542,-33.329642 21.619474,-12.77499 47.569043,-14.224917 32.935515,7.2539635 Z"
       inkscape:transform-center-x="2.40412"
       inkscape:transform-center-y="-1.3762875" />
    <path
       sodipodi:type="star"
       style="opacity:1;fill:none;fill-opacity:0;stroke:#a35964;stroke-width:0.79374999;stroke-linejoin:round;stroke-miterlimit:4;stroke-dasharray:none;stroke-opacity:0"
       id="path4561"
       sodipodi:sides="5"
       sodipodi:cx="12.170833"
       sodipodi:cy="5.0270834"
       sodipodi:r1="30.541903"
       sodipodi:r2="15.270952"
       sodipodi:arg1="1.0140336"
       sodipodi:arg2="1.6423521"
       inkscape:flatsided="false"
       inkscape:rounded="0"
       inkscape:randomized="0"
       d="M 28.310415,30.95625 11.07904,20.258957 -7.5018655,28.389291 -2.6529224,8.6956348 -16.127145,-6.4634451 4.1010407,-7.9375007 14.354418,-25.436662 22.007182,-6.6540216 41.818341,-2.310018 26.319823,10.772348 Z"
       inkscape:transform-center-x="-0.67476461"
       inkscape:transform-center-y="-2.2672896" />
    <path
       style="opacity:1;fill:none;fill-opacity:0;stroke:#e4162f;stroke-width:0.5097608;stroke-linejoin:miter;stroke-miterlimit:4;stroke-dasharray:none;stroke-opacity:1"
       d="M 3.7064802,19.563912 H 52.829027 V 36.596789 H 3.7064802 Z"
       id="rect4567"
       inkscape:connector-curvature="0" />
    <path
       style="display:inline;fill:none;fill-rule:evenodd;stroke:#192e51;stroke-width:0.26458335;stroke-linecap:butt;stroke-linejoin:miter;stroke-miterlimit:4;stroke-dasharray:none;stroke-opacity:1"
       d="M 40.138562,32.852287 H 51.48583"
       id="path4608-3"
       inkscape:connector-curvature="0" />
    <path
       style="display:inline;fill:none;fill-rule:evenodd;stroke:#192e51;stroke-width:0.26458335;stroke-linecap:butt;stroke-linejoin:miter;stroke-miterlimit:4;stroke-dasharray:none;stroke-opacity:1"
       d="M 5.2465255,32.785335 H 16.593793"
       id="path4608-3-5"
       inkscape:connector-curvature="0" />
  </g>
</svg>
