<?xml version="1.0" encoding="UTF-8" standalone="no"?>
<svg
   xmlns:dc="http://purl.org/dc/elements/1.1/"
   xmlns:cc="http://creativecommons.org/ns#"
   xmlns:rdf="http://www.w3.org/1999/02/22-rdf-syntax-ns#"
   xmlns:svg="http://www.w3.org/2000/svg"
   xmlns="http://www.w3.org/2000/svg"
   id="svg8"
   version="1.1"
   viewBox="0 0 94.533596 38.02885"
   height="143.73108"
   width="357.29233">
  <defs
     id="defs2" />
  <metadata
     id="metadata5">
    <rdf:RDF>
      <cc:Work
         rdf:about="">
        <dc:format>image/svg+xml</dc:format>
        <dc:type
           rdf:resource="http://purl.org/dc/dcmitype/StillImage" />
        <dc:title></dc:title>
      </cc:Work>
    </rdf:RDF>
  </metadata>
  <g
     transform="translate(2.5352378,-13.977003)"
     style="display:inline"
     id="layer3">
    <rect
       y="13.965836"
       x="-2.5375545"
       height="38.036495"
       width="94.533684"
       id="rect4712"
       style="opacity:1;fill:#ffffff;fill-opacity:1;stroke:#192e51;stroke-width:0;stroke-linejoin:miter;stroke-miterlimit:4;stroke-dasharray:none;stroke-opacity:1" />
  </g>
  <g
     style="display:inline"
     transform="translate(2.5352378,-247.47699)"
     id="layer1">
    <g
       id="text12"
       style="font-style:normal;font-weight:normal;font-size:10.58333302px;line-height:125%;font-family:Sans;letter-spacing:0px;word-spacing:0px;fill:#000000;fill-opacity:1;stroke:none;stroke-width:0.26458332px;stroke-linecap:butt;stroke-linejoin:miter;stroke-opacity:1"
       aria-label="INSIDER">
      <path
         id="path4552"
         style="font-style:normal;font-variant:normal;font-weight:900;font-stretch:normal;font-size:16.93333244px;font-family:Lato;-inkscape-font-specification:'Lato, Heavy';font-variant-ligatures:normal;font-variant-caps:normal;font-variant-numeric:normal;font-feature-settings:normal;text-align:start;letter-spacing:2.11666656px;word-spacing:0px;writing-mode:lr-tb;text-anchor:start;fill:#192e51;fill-opacity:1;stroke-width:0.26458332px"
         d="M 8.3832341,266.73059 H 5.5045676 v -12.33593 h 2.8786665 z" />
      <path
         id="path4554"
         style="font-style:normal;font-variant:normal;font-weight:900;font-stretch:normal;font-size:16.93333244px;font-family:Lato;-inkscape-font-specification:'Lato, Heavy';font-variant-ligatures:normal;font-variant-caps:normal;font-variant-numeric:normal;font-feature-settings:normal;text-align:start;letter-spacing:2.11666656px;word-spacing:0px;writing-mode:lr-tb;text-anchor:start;fill:#192e51;fill-opacity:1;stroke-width:0.26458332px"
         d="m 14.386895,254.39466 q 0.186266,0 0.313266,0.0169 0.127,0.0169 0.2286,0.0677 0.1016,0.0423 0.194733,0.127 0.09313,0.0847 0.211667,0.2286 l 5.858933,7.40834 q -0.03387,-0.3556 -0.0508,-0.6858 -0.01693,-0.33867 -0.01693,-0.635 v -6.5278 h 2.523066 v 12.33593 h -1.490133 q -0.3302,0 -0.5588,-0.1016 -0.220133,-0.11007 -0.440266,-0.37253 l -5.8166,-7.34907 q 0.0254,0.32173 0.04233,0.635 0.01693,0.3048 0.01693,0.57573 v 6.61247 H 12.879825 V 254.3946 h 1.507067 z" />
      <path
         id="path4556"
         style="font-style:normal;font-variant:normal;font-weight:900;font-stretch:normal;font-size:16.93333244px;font-family:Lato;-inkscape-font-specification:'Lato, Heavy';font-variant-ligatures:normal;font-variant-caps:normal;font-variant-numeric:normal;font-feature-settings:normal;text-align:start;letter-spacing:2.11666656px;word-spacing:0px;writing-mode:lr-tb;text-anchor:start;fill:#192e51;fill-opacity:1;stroke-width:0.26458332px"
         d="m 34.975181,256.90079 q -0.127,0.2032 -0.270933,0.3048 -0.135467,0.1016 -0.3556,0.1016 -0.194733,0 -0.423333,-0.11853 -0.220134,-0.127 -0.508,-0.2794 -0.2794,-0.1524 -0.643467,-0.27094 -0.364067,-0.127 -0.829733,-0.127 -0.804334,0 -1.202267,0.34714 -0.389467,0.33866 -0.389467,0.92286 0,0.37254 0.237067,0.61807 0.237067,0.24553 0.618067,0.42333 0.389466,0.1778 0.880533,0.3302 0.499533,0.14394 1.016,0.3302 0.516467,0.1778 1.007533,0.42334 0.499534,0.24553 0.880534,0.62653 0.389466,0.381 0.626533,0.93133 0.237066,0.54187 0.237066,1.31234 0,0.85513 -0.296333,1.6002 -0.296333,0.74506 -0.8636,1.30386 -0.5588,0.55034 -1.388533,0.87207 -0.821267,0.31327 -1.871133,0.31327 -0.575734,0 -1.176867,-0.11854 -0.592667,-0.11853 -1.151467,-0.3302 -0.558799,-0.22013 -1.049866,-0.51646 -0.491067,-0.29634 -0.855133,-0.6604 l 0.846666,-1.33774 q 0.1016,-0.14393 0.262467,-0.23706 0.169333,-0.1016 0.364067,-0.1016 0.253999,0 0.507999,0.16086 0.262467,0.16087 0.5842,0.3556 0.3302,0.19474 0.753534,0.3556 0.423333,0.16087 0.999066,0.16087 0.778934,0 1.210734,-0.33867 0.4318,-0.34713 0.4318,-1.0922 0,-0.4318 -0.237067,-0.70273 -0.237067,-0.27093 -0.626533,-0.44873 -0.381,-0.1778 -0.872067,-0.31327 -0.491067,-0.13547 -1.007533,-0.29633 -0.516467,-0.16934 -1.007534,-0.4064 -0.491066,-0.24554 -0.880533,-0.635 -0.381,-0.39794 -0.618066,-0.98214 -0.237067,-0.59266 -0.237067,-1.45626 0,-0.69427 0.2794,-1.35467 0.2794,-0.6604 0.821267,-1.17687 0.541866,-0.51646 1.329266,-0.82126 0.7874,-0.31327 1.8034,-0.31327 0.567267,0 1.100667,0.0931 0.541866,0.0847 1.024466,0.26247 0.4826,0.16933 0.897467,0.41487 0.423333,0.23706 0.753533,0.54186 z" />
      <path
         id="path4558"
         style="font-style:normal;font-variant:normal;font-weight:900;font-stretch:normal;font-size:16.93333244px;font-family:Lato;-inkscape-font-specification:'Lato, Heavy';font-variant-ligatures:normal;font-variant-caps:normal;font-variant-numeric:normal;font-feature-settings:normal;text-align:start;letter-spacing:2.11666656px;word-spacing:0px;writing-mode:lr-tb;text-anchor:start;fill:#192e51;fill-opacity:1;stroke-width:0.26458332px"
         d="m 42.547556,266.73059 h -2.878667 v -12.33593 h 2.878667 z" />
      <path
         id="path4560"
         style="font-style:normal;font-variant:normal;font-weight:900;font-stretch:normal;font-size:16.93333244px;font-family:Lato;-inkscape-font-specification:'Lato, Heavy';font-variant-ligatures:normal;font-variant-caps:normal;font-variant-numeric:normal;font-feature-settings:normal;text-align:start;letter-spacing:2.11666656px;word-spacing:0px;writing-mode:lr-tb;text-anchor:start;fill:#192e51;fill-opacity:1;stroke-width:0.26458332px"
         d="m 58.237082,260.55839 q 0,1.33773 -0.465667,2.47227 -0.4572,1.12606 -1.2954,1.9558 -0.8382,0.82126 -2.023533,1.28693 -1.176867,0.4572 -2.6162,0.4572 h -4.792133 v -12.33593 h 4.792133 q 1.439333,0 2.6162,0.46566 1.185333,0.46567 2.023533,1.28694 0.8382,0.82126 1.2954,1.9558 0.465667,1.12606 0.465667,2.45533 z m -2.929467,0 q 0,-0.9144 -0.237067,-1.651 -0.237066,-0.7366 -0.685799,-1.2446 -0.440267,-0.51647 -1.083734,-0.7874 -0.643466,-0.2794 -1.464733,-0.2794 h -1.913467 v 7.93327 h 1.913467 q 0.821267,0 1.464733,-0.27094 0.643467,-0.2794 1.083734,-0.7874 0.448733,-0.51646 0.685799,-1.25306 0.237067,-0.7366 0.237067,-1.65947 z" />
      <path
         id="path4562"
         style="font-style:normal;font-variant:normal;font-weight:900;font-stretch:normal;font-size:16.93333244px;font-family:Lato;-inkscape-font-specification:'Lato, Heavy';font-variant-ligatures:normal;font-variant-caps:normal;font-variant-numeric:normal;font-feature-settings:normal;text-align:start;letter-spacing:2.11666656px;word-spacing:0px;writing-mode:lr-tb;text-anchor:start;fill:#192e51;fill-opacity:1;stroke-width:0.26458332px"
         d="m 70.000984,254.39466 v 2.20133 h -5.063066 v 2.87867 h 3.877733 v 2.11666 h -3.877733 v 2.93794 h 5.063066 v 2.20133 h -7.941733 v -12.33593 z" />
      <path
         id="path4564"
         style="font-style:normal;font-variant:normal;font-weight:900;font-stretch:normal;font-size:16.93333244px;font-family:Lato;-inkscape-font-specification:'Lato, Heavy';font-variant-ligatures:normal;font-variant-caps:normal;font-variant-numeric:normal;font-feature-settings:normal;text-align:start;letter-spacing:2.11666656px;word-spacing:0px;writing-mode:lr-tb;text-anchor:start;fill:#192e51;fill-opacity:1;stroke-width:0.26458332px"
         d="m 76.728018,262.16706 v 4.56353 h -2.861733 v -12.33593 h 4.0132 q 1.337733,0 2.277533,0.2794 0.948266,0.27093 1.540933,0.762 0.601133,0.49106 0.872067,1.15993 0.270933,0.66887 0.270933,1.45627 0,0.60113 -0.160867,1.13453 -0.160866,0.5334 -0.4826,0.9906 -0.313266,0.44873 -0.778933,0.80433 -0.4572,0.3556 -1.058333,0.5842 0.287866,0.14394 0.5334,0.36407 0.245533,0.21167 0.440266,0.508 l 2.624667,4.2926 h -2.5908 q -0.719667,0 -1.032933,-0.54187 l -2.048933,-3.5814 q -0.143934,-0.2286 -0.321734,-0.3302 -0.1778,-0.11006 -0.508,-0.11006 z m 0,-1.97274 h 1.151467 q 0.5842,0 0.9906,-0.14393 0.414866,-0.1524 0.677333,-0.41487 0.262466,-0.26246 0.381,-0.6096 0.118533,-0.3556 0.118533,-0.762 0,-0.8128 -0.5334,-1.27 -0.524933,-0.4572 -1.634066,-0.4572 h -1.151467 z" />
    </g>
    <rect
       y="238.26248"
       x="3.4395833"
       height="54.504169"
       width="87.577087"
       id="rect4526"
       style="opacity:1;fill:#192e51;fill-opacity:0;stroke:#fcc601;stroke-width:0;stroke-miterlimit:4;stroke-dasharray:none;stroke-opacity:0" />
    <rect
       y="238.26248"
       x="3.4395833"
       height="54.504181"
       width="87.577087"
       id="rect4530"
       style="opacity:1;fill:#192e51;fill-opacity:0;stroke:#fcc601;stroke-width:0;stroke-miterlimit:4;stroke-dasharray:none;stroke-opacity:0" />
    <rect
       y="238.26248"
       x="3.4395833"
       height="54.504181"
       width="87.57708"
       id="rect4532"
       style="opacity:1;fill:#192e51;fill-opacity:0;stroke:#fcc601;stroke-width:0;stroke-miterlimit:4;stroke-dasharray:none;stroke-opacity:0" />
    <rect
       y="233.49998"
       x="1.1603038e-06"
       height="63.566132"
       width="95.25"
       id="rect4557"
       style="opacity:1;fill:none;fill-opacity:0;stroke:#a35964;stroke-width:0.79374999;stroke-linejoin:round;stroke-miterlimit:4;stroke-dasharray:none;stroke-opacity:0" />
    <g
       id="text4571"
       style="font-style:normal;font-weight:normal;font-size:10.58333302px;line-height:100%;font-family:Sans;letter-spacing:0px;word-spacing:0px;fill:#000000;fill-opacity:1;stroke:none;stroke-width:0.26458332px;stroke-linecap:butt;stroke-linejoin:miter;stroke-opacity:1"
       aria-label="LONDON">
      <path
         id="path4567"
         style="font-style:normal;font-variant:normal;font-weight:500;font-stretch:normal;font-size:7.4083333px;line-height:100%;font-family:Lato;-inkscape-font-specification:'Lato, Medium';font-variant-ligatures:normal;font-variant-caps:normal;font-variant-numeric:normal;font-feature-settings:normal;text-align:start;letter-spacing:0.5291667px;writing-mode:lr-tb;text-anchor:start;fill:#192e51;fill-opacity:1;stroke-width:0.26458332px"
         d="m 28.64042,277.758 h 2.270654 v 0.64453 h -3.033713 v -5.31548 h 0.763059 z" />
      <path
         id="path4569"
         style="font-style:normal;font-variant:normal;font-weight:500;font-stretch:normal;font-size:7.4083333px;line-height:100%;font-family:Lato;-inkscape-font-specification:'Lato, Medium';font-variant-ligatures:normal;font-variant-caps:normal;font-variant-numeric:normal;font-feature-settings:normal;text-align:start;letter-spacing:0.5291667px;writing-mode:lr-tb;text-anchor:start;fill:#192e51;fill-opacity:1;stroke-width:0.26458332px"
         d="m 36.903655,275.74294 q 0,0.59637 -0.192617,1.09643 -0.188913,0.50006 -0.5334,0.85937 -0.344488,0.3593 -0.829733,0.55932 -0.485246,0.20003 -1.074209,0.20003 -0.588962,0 -1.074208,-0.20003 -0.481542,-0.20002 -0.829733,-0.55932 -0.348192,-0.35931 -0.540809,-0.85937 -0.188912,-0.50006 -0.188912,-1.09643 0,-0.59267 0.188912,-1.09273 0.192617,-0.50007 0.540809,-0.85937 0.348191,-0.3593 0.829733,-0.55933 0.485246,-0.20373 1.074208,-0.20373 0.588963,0 1.074209,0.20373 0.485245,0.20003 0.829733,0.55933 0.344487,0.3593 0.5334,0.85937 0.192617,0.50006 0.192617,1.09273 z m -0.78158,0 q 0,-0.47784 -0.129645,-0.85937 -0.129646,-0.38153 -0.374121,-0.64453 -0.240771,-0.2667 -0.581554,-0.40745 -0.340784,-0.14076 -0.763059,-0.14076 -0.422275,0 -0.766762,0.14076 -0.340784,0.14075 -0.585258,0.40745 -0.240771,0.263 -0.374121,0.64453 -0.129646,0.38153 -0.129646,0.85937 0,0.48154 0.129646,0.86307 0.13335,0.38153 0.374121,0.64452 0.244474,0.263 0.585258,0.40376 0.344487,0.14075 0.766762,0.14075 0.422275,0 0.763059,-0.14075 0.340783,-0.14076 0.581554,-0.40376 0.244475,-0.26299 0.374121,-0.64452 0.129645,-0.38153 0.129645,-0.86307 z" />
      <path
         id="path4571"
         style="font-style:normal;font-variant:normal;font-weight:500;font-stretch:normal;font-size:7.4083333px;line-height:100%;font-family:Lato;-inkscape-font-specification:'Lato, Medium';font-variant-ligatures:normal;font-variant-caps:normal;font-variant-numeric:normal;font-feature-settings:normal;text-align:start;letter-spacing:0.5291667px;writing-mode:lr-tb;text-anchor:start;fill:#192e51;fill-opacity:1;stroke-width:0.26458332px"
         d="m 38.823968,273.08705 q 0.100012,0 0.148166,0.0222 0.05186,0.0222 0.114829,0.10742 l 3.026305,3.92272 q -0.0074,-0.10002 -0.01482,-0.20003 -0.0037,-0.10001 -0.0037,-0.18521 v -3.66712 h 0.670454 v 5.31548 h -0.385233 q -0.0889,0 -0.151871,-0.0296 -0.05927,-0.0333 -0.118534,-0.10742 l -3.030008,-3.92271 q 0.0074,0.0963 0.01111,0.19262 0.0074,0.0926 0.0074,0.17409 v 3.69306 h -0.670454 v -5.31548 h 0.396346 z" />
      <path
         id="path4573"
         style="font-style:normal;font-variant:normal;font-weight:500;font-stretch:normal;font-size:7.4083333px;line-height:100%;font-family:Lato;-inkscape-font-specification:'Lato, Medium';font-variant-ligatures:normal;font-variant-caps:normal;font-variant-numeric:normal;font-feature-settings:normal;text-align:start;letter-spacing:0.5291667px;writing-mode:lr-tb;text-anchor:start;fill:#192e51;fill-opacity:1;stroke-width:0.26458332px"
         d="m 49.255298,275.74294 q 0,0.59637 -0.192617,1.08902 -0.188912,0.48895 -0.537104,0.84085 -0.344488,0.34819 -0.829733,0.5408 -0.485246,0.18892 -1.074209,0.18892 h -1.992841 v -5.31548 h 1.992841 q 0.588963,0 1.074209,0.19261 0.485245,0.19262 0.829733,0.54081 0.348192,0.34819 0.537104,0.84085 0.192617,0.48895 0.192617,1.08162 z m -0.781579,0 q 0,-0.47784 -0.129646,-0.85567 -0.129646,-0.38153 -0.374121,-0.64082 -0.240771,-0.26299 -0.585258,-0.40005 -0.340784,-0.14076 -0.763059,-0.14076 h -1.226079 v 4.07829 h 1.226079 q 0.422275,0 0.763059,-0.13705 0.344487,-0.14076 0.585258,-0.40005 0.244475,-0.263 0.374121,-0.64082 0.129646,-0.38153 0.129646,-0.86307 z" />
      <path
         id="path4575"
         style="font-style:normal;font-variant:normal;font-weight:500;font-stretch:normal;font-size:7.4083333px;line-height:100%;font-family:Lato;-inkscape-font-specification:'Lato, Medium';font-variant-ligatures:normal;font-variant-caps:normal;font-variant-numeric:normal;font-feature-settings:normal;text-align:start;letter-spacing:0.5291667px;writing-mode:lr-tb;text-anchor:start;fill:#192e51;fill-opacity:1;stroke-width:0.26458332px"
         d="m 55.72421,275.74294 q 0,0.59637 -0.192616,1.09643 -0.188913,0.50006 -0.5334,0.85937 -0.344488,0.3593 -0.829734,0.55932 -0.485245,0.20003 -1.074208,0.20003 -0.588962,0 -1.074208,-0.20003 -0.481542,-0.20002 -0.829734,-0.55932 -0.348191,-0.35931 -0.540808,-0.85937 -0.188912,-0.50006 -0.188912,-1.09643 0,-0.59267 0.188912,-1.09273 0.192617,-0.50007 0.540808,-0.85937 0.348192,-0.3593 0.829734,-0.55933 0.485246,-0.20373 1.074208,-0.20373 0.588963,0 1.074208,0.20373 0.485246,0.20003 0.829734,0.55933 0.344487,0.3593 0.5334,0.85937 0.192616,0.50006 0.192616,1.09273 z m -0.781579,0 q 0,-0.47784 -0.129646,-0.85937 -0.129645,-0.38153 -0.37412,-0.64453 -0.240771,-0.2667 -0.581555,-0.40745 -0.340783,-0.14076 -0.763058,-0.14076 -0.422275,0 -0.766762,0.14076 -0.340784,0.14075 -0.585259,0.40745 -0.240771,0.263 -0.374121,0.64453 -0.129645,0.38153 -0.129645,0.85937 0,0.48154 0.129645,0.86307 0.13335,0.38153 0.374121,0.64452 0.244475,0.263 0.585259,0.40376 0.344487,0.14075 0.766762,0.14075 0.422275,0 0.763058,-0.14075 0.340784,-0.14076 0.581555,-0.40376 0.244475,-0.26299 0.37412,-0.64452 0.129646,-0.38153 0.129646,-0.86307 z" />
      <path
         id="path4577"
         style="font-style:normal;font-variant:normal;font-weight:500;font-stretch:normal;font-size:7.4083333px;line-height:100%;font-family:Lato;-inkscape-font-specification:'Lato, Medium';font-variant-ligatures:normal;font-variant-caps:normal;font-variant-numeric:normal;font-feature-settings:normal;text-align:start;letter-spacing:0.5291667px;writing-mode:lr-tb;text-anchor:start;fill:#192e51;fill-opacity:1;stroke-width:0.26458332px"
         d="m 57.644524,273.08705 q 0.100013,0 0.148167,0.0222 0.05186,0.0222 0.114829,0.10742 l 3.026304,3.92272 q -0.0074,-0.10002 -0.01482,-0.20003 -0.0037,-0.10001 -0.0037,-0.18521 v -3.66712 h 0.670455 v 5.31548 h -0.385234 q -0.0889,0 -0.151871,-0.0296 -0.05927,-0.0333 -0.118533,-0.10742 l -3.030008,-3.92271 q 0.0074,0.0963 0.01111,0.19262 0.0074,0.0926 0.0074,0.17409 v 3.69306 h -0.670455 v -5.31548 h 0.396346 z" />
    </g>
  </g>
  <g
     transform="translate(2.5352378,-13.977003)"
     style="display:inline"
     id="layer2">
    <rect
       y="10.318749"
       x="6.8791666"
       height="31.485416"
       width="32.014584"
       id="rect4547"
       style="opacity:1;fill:#192e51;fill-opacity:0;stroke:#fcc601;stroke-width:0;stroke-miterlimit:4;stroke-dasharray:none;stroke-opacity:0" />
    <path
       d="M 42.333335,31.485418 17.383697,24.205444 -2.7577004,40.631234 -3.5438958,14.653082 -25.389784,0.57332358 -0.92604132,-8.2020831 5.7138542,-33.329642 21.619474,-12.77499 47.569043,-14.224917 32.935515,7.2539635 Z"
       id="path4559"
       style="opacity:1;fill:none;fill-opacity:0;stroke:#a35964;stroke-width:0.79374999;stroke-linejoin:round;stroke-miterlimit:4;stroke-dasharray:none;stroke-opacity:0" />
    <path
       d="M 28.310415,30.95625 11.07904,20.258957 -7.5018655,28.389291 -2.6529224,8.6956348 -16.127145,-6.4634451 4.1010407,-7.9375007 14.354418,-25.436662 22.007182,-6.6540216 41.818341,-2.310018 26.319823,10.772348 Z"
       id="path4561"
       style="opacity:1;fill:none;fill-opacity:0;stroke:#a35964;stroke-width:0.79374999;stroke-linejoin:round;stroke-miterlimit:4;stroke-dasharray:none;stroke-opacity:0" />
    <rect
       y="14.495215"
       x="-2.0170257"
       height="36.992424"
       width="93.497169"
       id="rect4567"
       style="opacity:1;fill:none;fill-opacity:0;stroke:#e4162f;stroke-width:1.03642428;stroke-linejoin:miter;stroke-miterlimit:4;stroke-dasharray:none;stroke-opacity:1" />
    <path
       id="path4608"
       d="M 5.2916667,42.333339 H 24.870836"
       style="fill:none;fill-rule:evenodd;stroke:#192e51;stroke-width:0.812002;stroke-linecap:butt;stroke-linejoin:miter;stroke-miterlimit:4;stroke-dasharray:none;stroke-opacity:1" />
    <path
       id="path4608-3"
       d="m 64.740723,42.347038 h 19.57917"
       style="display:inline;fill:none;fill-rule:evenodd;stroke:#192e51;stroke-width:0.812002;stroke-linecap:butt;stroke-linejoin:miter;stroke-miterlimit:4;stroke-dasharray:none;stroke-opacity:1" />
  </g>
</svg>
