<!-- Generated by IcoMoon.io -->
<svg version="1.1" xmlns="http://www.w3.org/2000/svg" width="768" height="768" viewBox="0 0 768 768">
<title></title>
<g id="icomoon-ignore">
</g>
<path d="M672 352h-576c-19.2 0-32 12.8-32 32s12.8 32 32 32h576c19.2 0 32-12.8 32-32s-12.8-32-32-32z"></path>
<path d="M96 224h576c19.2 0 32-12.8 32-32s-12.8-32-32-32h-576c-19.2 0-32 12.8-32 32s12.8 32 32 32z"></path>
<path d="M672 544h-576c-19.2 0-32 12.8-32 32s12.8 32 32 32h576c19.2 0 32-12.8 32-32s-12.8-32-32-32z"></path>
</svg>
