<!-- Generated by IcoMoon.io -->
<svg version="1.1" xmlns="http://www.w3.org/2000/svg" width="768" height="768" viewBox="0 0 768 768">
<title></title>
<g id="icomoon-ignore">
</g>
<path d="M652.8 444.8c-28.8-3.2-57.6-9.6-83.2-19.2-35.2-12.8-73.6-3.2-102.4 22.4l-22.4 22.4c-57.6-38.4-108.8-86.4-147.2-147.2l22.4-22.4c25.6-25.6 35.2-67.2 22.4-102.4-9.6-25.6-16-54.4-19.2-83.2-6.4-48-48-83.2-96-83.2 0 0 0 0 0 0h-96c-3.2 0-6.4 0-9.6 0-25.6 3.2-48 16-64 35.2s-22.4 44.8-22.4 70.4c9.6 102.4 48 204.8 102.4 291.2 51.2 80 121.6 150.4 201.6 201.6 86.4 57.6 188.8 92.8 291.2 102.4 3.2 0 6.4 0 9.6 0 0 0 0 0 0 0 25.6 0 51.2-9.6 67.2-28.8s28.8-41.6 28.8-67.2v-96c0-48-35.2-89.6-83.2-96zM672 540.8v96c0 9.6-3.2 16-9.6 22.4s-12.8 9.6-25.6 9.6c-92.8-9.6-182.4-41.6-262.4-92.8-73.6-44.8-134.4-108.8-182.4-182.4-51.2-80-83.2-169.6-92.8-262.4 0-9.6 3.2-16 6.4-22.4 6.4-6.4 16-12.8 25.6-12.8h96c0 0 0 0 0 0 16 0 28.8 12.8 32 28.8 3.2 32 12.8 67.2 25.6 96 3.2 12.8 0 25.6-6.4 35.2l-41.6 38.4c-9.6 9.6-12.8 25.6-6.4 38.4 48 86.4 118.4 156.8 204.8 204.8 12.8 6.4 28.8 6.4 38.4-6.4l41.6-41.6c9.6-9.6 22.4-12.8 35.2-6.4 32 12.8 64 19.2 96 25.6 12.8 3.2 25.6 16 25.6 32 0 0 0 0 0 0z"></path>
<path d="M486.4 0c-16-3.2-32 9.6-35.2 28.8-3.2 16 9.6 32 28.8 35.2 118.4 12.8 211.2 105.6 227.2 227.2 3.2 16 16 28.8 32 28.8 0 0 3.2 0 3.2 0 16-3.2 28.8-19.2 28.8-35.2-19.2-150.4-137.6-268.8-284.8-284.8z"></path>
<path d="M576 291.2c3.2 16 16 25.6 32 25.6 3.2 0 3.2 0 6.4 0 16-3.2 28.8-19.2 25.6-38.4-16-76.8-73.6-137.6-150.4-150.4-16-3.2-35.2 6.4-38.4 25.6s6.4 35.2 25.6 38.4c51.2 9.6 89.6 48 99.2 99.2z"></path>
</svg>
