<?xml version="1.0" encoding="UTF-8" standalone="no"?>
<!-- Created with Inkscape (http://www.inkscape.org/) -->
<svg xmlns:rdf="http://www.w3.org/1999/02/22-rdf-syntax-ns#" xmlns="http://www.w3.org/2000/svg" height="962.69" width="962" version="1.1" xmlns:cc="http://creativecommons.org/ns#" xmlns:xlink="http://www.w3.org/1999/xlink" xmlns:dc="http://purl.org/dc/elements/1.1/">
 <defs></defs>
 <metadata>
  <rdf:RDF>
   <cc:Work rdf:about="">
    <dc:format>image/svg+xml</dc:format>
    <dc:type rdf:resource="http://purl.org/dc/dcmitype/StillImage"/>
    <dc:title/>
   </cc:Work>
  </rdf:RDF>
 </metadata>
 <g transform="translate(822.43156,24.974194)">
  <g transform="matrix(1.2499987,0,0,1.2499987,-824.51452,-26.348742)">
   <path d="m98.066,632.7c-8.176-0.056-10.128-5.128-14.864-11.2,0,0-24.376-35.2-24.376-35.2-23.88-38.144-40.424-81.528-49.24-125.6-2.912-14.536-4.96-29.224-5.992-44,0,0-0.728-8-0.728-8s-0.80001-16.8-0.80001-16.8v-13.6s0.80001-16,0.80001-16,0.728-8,0.728-8c2.32-33.192,9.472-66.248,20.624-97.6,40.52-113.86,132.85-202.51,248.25-238.38,28.97-9.0004,58.61-14.024,88.8-16.088,0,0,9.6-0.728,9.6-0.728h32.8s8,0.728,8,0.728c17.856,1.224,35.216,3.432,52.8,6.952,125.56,25.12,230.9,114.73,278.72,233.12,15.936,39.464,26.384,86.208,26.88,128.8,0,0,0.8,12,0.8,12s-0.8,24-0.8,24-0.728,8-0.728,8c-1.072,15.36-3.128,30.488-6.152,45.6-8.728,43.616-25.528,87.848-49.16,125.6,0,0-24.48,35.2-24.48,35.2-4.048,5.232-6.776,11.064-13.88,11.2h-6.4s19.704-25.6,19.704-25.6c10.392-13.912,19.784-28.72,28.048-44,18.032-33.344,30.584-69.272,38.008-106.4,2.424-12.136,6.096-36.016,6.24-48,0,0,0.8-15.2,0.8-15.2v-16s-0.8-15.2-0.8-15.2c-0.136-11.032-3.6-34.336-5.76-45.6-6.488-33.856-17.016-65.944-32.44-96.8-21.39-42.78-49.49-80.54-85-112.66-52.59-47.58-118.11-79.804-188-91.94-16.91-2.936-34.87-4.976-52-5,0,0-12.8-0.768-12.8-0.768s-6.4,0.736-6.4,0.736h-12s-8,0.76-8,0.76-28,3.056-28,3.056c-31.648,4.56-62.608,13.616-92,26.16-42.448,18.104-81.104,44.64-114.4,76.488,0,0-12.872,13.568-12.872,13.568-30.792,33.104-51.272,65.376-69.768,106.4-17.784,39.424-28.312,84.856-30.192,128,0,0-0.768,8.8-0.768,8.8v22.4s0.768,10.4,0.768,10.4c2.408,55.352,18.656,110.78,45.52,159.2,7.112,12.824,17.28,29.104,26.008,40.8,0,0,20.504,26.4,20.504,26.4h-5.6zm11.272-0.48001c-2.784-1.096-8.152-8.16-10.272-10.72-9.08-10.984-19.248-24.704-26.752-36.8-25.992-41.864-42.464-82.744-51.536-131.2-2.64-14.112-4.208-28.104-5.184-42.4,0,0-0.728-8-0.728-8v-33.6s0.728-9.6,0.728-9.6c1.944-28.4,6.824-55.896,15.048-83.2,33.398-110.91,119.61-201.06,228.23-240.76,30.768-11.24,63.328-18.624,96-20.912,0,0,8-0.728,8-0.728s15.2-0.8,15.2-0.8h16.8s15.2,0.8,15.2,0.8,8,0.728,8,0.728c20.6,1.44,40.776,5.168,60.8,10.176,107.35,26.832,199.2,103.79,245.35,204.3,18.208,39.648,28.056,78.304,32.384,121.6,0,0,1.464,20,1.464,20v30.4s-0.728,8-0.728,8c-1.296,18.944-3.632,37.416-7.736,56-9.24,41.848-26.424,85.064-50.2,120.8-8.072,12.128-16.336,23.984-25.664,35.2-2.104,2.528-7.496,9.616-10.208,10.72-1.424,0.58401-3.896,0.47201-5.464,0.48001,0,0,18.496-23.2,18.496-23.2,12.344-16.184,22.144-31,32.016-48.8,19.848-35.784,33.28-75.68,39.952-116,0,0,4.008-36.8,4.008-36.8s0.72802-9.6,0.72802-9.6v-27.2s-0.76802-8.8-0.76802-8.8c-1.816-41.68-12.912-84.176-29.408-122.4-17.672-40.936-43.08-78.856-74.624-110.4,0,0-16-15.864-16-15.864-31.66-28.644-68.53-51.892-108-68.132-125.76-51.728-273-28.096-376,61.012-36.352,31.456-64.112,66.336-86.952,108.58-17.864,33.032-30.984,73.376-37.112,110.4-1.992,12.056-4.72,32.896-4.736,44.8v32s0.728,8,0.728,8,4.008,35.2,4.008,35.2c8.072,48.752,25.504,93.296,51.6,135.2,7.264,11.664,15.44,22.88,24.024,33.6,4,5,12.064,13.648,14.84,18.4-1.6-0.008-4.072,0.096-5.528-0.48001z" stroke-miterlimit="4" stroke-width="0" fill="#FFF"/>
   <path d="m185.99,652.8c4.648,3.944,3.432,11.696-2.304,13.936-9.232,3.616-16.328-9.8-6.368-15.288,3.16-0.76,6.008-0.912,8.672,1.352zm-99.096,9.816c1.512-2.008,10.176-4.152,12.808-4.56v20h15.2v11.2h-15.2v32c0.056,4.224,0.728,8.936,4.832,11.224,3.376,1.872,7.688-0.04,11.168-0.824,0,2.264,0.432,9.88-0.792,11.408-1.096,1.368-4.712,1.752-6.408,1.96-7.08,0.88-15.816-0.408-19.824-6.976-2.408-3.96-3.32-11.368-3.376-15.992v-32.8h-12.8v-11.2h13.6c0-2.824-0.56-13.632,0.792-15.44zm76.808,14.64s-0.8,13.416-0.8,13.416c-3.24-0.24-6.336-0.976-9.6,0-6.088,1.28-10.12,7.152-11.456,12.984-0.816,3.56-0.544,10.472-0.544,14.4v25.6h-14.4v-65.6h12.8s0.8,8.8,0.8,8.8c4.8-10.144,13.432-10.888,23.2-9.6zm71.2-0.8c16.6,0.192,26.216,13.992,26.4,29.6v7.2c-0.128,10.952-4.952,23.688-15.2,28.936-3.04,1.552-6.264,2.088-9.6,2.592-3.728,0.568-7.576,0.12-11.2-0.952-5.064-1.504-7.528-3.792-11.2-7.376v34.4h-14.4v-92.8h12.8v8.8c7.16-7.864,11.72-10.52,22.4-10.4zm-47.2,1.6v65.6h-14.4v-65.6h14.4zm26.4,35.2c0.136,11.064,6.68,21.992,19.2,19.736,7.656-1.376,11.56-8.752,12.952-15.736,1.832-9.136,0.12-23.992-9.752-27.992-2.8-1.136-6.64-0.88-9.6-0.536-11.888,3.208-12.92,14.2-12.8,24.528z" stroke-miterlimit="4" stroke-width="0" fill="#000"/>
   <path d="m394.43,646.19v96.8h-12.8s-0.8-9.6-0.8-9.6c-7.496,13.84-30.824,15.536-41.8-0.8-8.504-12.648-8.136-34.824,0.832-47.2,9.752-13.456,30.896-12.688,40.968,0v-39.2h13.6zm87.2,4.392c10.92,1.448,7.976,17.584-2.4,15.912-7.04-1.144-10.776-10.808-1.6-15.912,1.576-0.168,2.312-0.456,4,0zm-204,34.81c0.032-1.448-0.016-3.208,0.816-4.464,1.56-2.352,8.424-3.912,11.184-4.4,10.44-1.832,22.928-1.76,30.088,7.264,3.936,4.96,5.08,11.44,5.112,17.6v41.6h-12.8s-0.8-8-0.8-8c-4.08,7.912-13.696,8.896-21.6,8.8-15.088-0.184-23.68-14.288-18.016-28,1.28-3.096,3.408-5.624,6.016-7.688,3.304-2.616,7.912-4.216,12-5.104,8.328-1.8,13.304-1.608,21.6-1.608-0.112-2.344-0.216-4.224-1.256-6.4-7.424-15.552-26.024-4.2-32.344-2.4v-7.2zm332.77-1.528c14.408,13.912,12.944,45.656-4.768,56.344-6.736,4.064-13.216,4.472-20.8,4.384-23.128-0.272-33.168-20.976-29.8-41.6,0.952-5.792,2.136-10.328,5.632-15.2,5.088-7.096,11.136-9.8,19.368-11.632,10.552-1.456,22.4,0.016,30.368,7.704zm57.632-7.272s-0.8,13.6-0.8,13.6c-2.552-0.456-4.568-0.912-7.2-0.72-10.296,0.72-14.288,10.952-14.4,19.92v33.6h-14.4v-65.6h12.8s0.8,8.8,0.8,8.8c5.352-9.96,13.096-10.936,23.2-9.6zm-143.2,55.448c4.976-1.8,8.2-6.64,4.456-11.376-5.208-6.592-20.512-8.6-25.6-19.272-1-2.104-1.2-4.112-1.24-6.4-0.176-8.2,3.592-13.32,11.184-16.424,8.568-3.496,21.664-2.104,30.4,0.424,0,0-0.8,12-0.8,12-5.408-1.456-9.224-3.584-15.2-3.928-4.608-0.264-14.072,2.336-10.48,8.696,2.104,3.728,8.336,6.168,12.08,7.944,7.264,3.448,14.848,8.456,16.432,16.888,0.416,2.248,0.4,4.152,0,6.4-2.768,15.344-17.288,16.944-30.032,16.8-3.216-0.04-11.648-0.856-13.584-3.608-0.92801-1.32-0.808-3.624-0.816-5.192v-6.4c7.2,1.344,14.896,6.456,23.2,3.448zm-112-54.65c6.112,0.12,5.776,1.968,8.976,8.8,2.712,5.776,10.616,22.064,11.824,27.2h1.6s12.2-25.6,12.2-25.6,5.712-9.584,5.712-9.584,14.088-0.816,14.088-0.816-9.4,20-9.4,20-22.6,45.6-22.6,45.6h-1.6s-5.8-12-5.8-12-18.408-37.6-18.408-37.6-7.792-16-7.792-16h11.2zm74.4,0v65.6h-13.6v-65.6h13.6zm-139.2,35.2c0.112,9.144,4.008,18.976,14.4,19.848,8.608,0.728,14.208-4.88,16.624-12.648,1.248-4.016,1.44-8.64,1.096-12.8-0.984-11.912-5.688-21.216-19.32-19.736-12.328,3.072-12.92,14.904-12.8,25.336zm223,8c2.648,8,9.88,13.912,18.6,12.424,22.896-3.888,21.272-48.72-5.6-45.76-14.32,3.44-17.032,21.144-13,33.336zm-267-8.8c-3.784,0.008-5.864,0.064-9.6,0.992-8.472,2.088-14.736,11.016-7.096,17.984,4.728,4.32,13.608,2.752,18.216-1.024,2.16-1.768,3.512-4.176,4.504-6.752,1.496-3.88,1.176-7.144,1.176-11.2h-7.2z" stroke-miterlimit="4" stroke-width="0" fill="#FFF"/>
   <path d="m332.5,108.75c9.192-3.152,19.6,0.496,18.256,11.8-0.928,7.736-7.456,13.992-12.656,19.2h13.6v6.4h-24.8c0.008-1.664-0.096-4.056,0.48-5.6,1.328-3.56,11.616-11.32,14.264-17.6,1.736-4.12-0.536-8.112-5.144-7.784-2.728,0.192-5.696,2.384-8,3.784,0,0-1.6-7.2-1.6-7.2,1.936-1.24,3.392-2.248,5.6-3zm52,20.6c-0.12,9.856-4.072,18.152-15.2,17.568-6.928-0.368-10.184-4.92-11.872-11.168-2.608-9.616-1.192-23.816,9.472-27.552,15.016-2.616,17.736,9.24,17.6,21.152zm5.648-14.888c1.264-2.224,9.4-5.36,11.952-5.824h5.6v37.512h-8v-28.8s-9.552,3.2-9.552,3.2c-0.176-1.68-0.76-4.64,0-6.088zm55-5.912v7.2s-13.448,31.2-13.448,31.2-8-0.8-8-0.8,12.8-30.4,12.8-30.4h-16.8v-7.2h25.448zm-78.688,9.648c-1.504,2.752-1.544,12.776-0.888,15.952,0.64,3.088,3.176,6.496,6.76,5.104,2.6-1.008,3.144-4.304,3.56-6.704,0.952-5.392,1.48-17.624-6.512-17.072-1.584,0.936-1.944,0.944-2.92,2.72zm244.46,71.848c2.472-1.408,11.56-2.816,13.568,0,0.928,1.168,0.216,4.184,0,5.704-9.472-1.248-11.632,0.856-13.584,10.4h8s-0.8,6.4-0.8,6.4h-8.8s-4,24-4,24h-8s4.8-24,4.8-24h-5.6c1.12-5.824,1.208-6.32,7.2-6.4,0.272-5.84,1.872-12.72,7.216-16.104zm-419.23,43.544c-1,1.448-4.712,2.4-6.384,2.832-6.128,1.616-14.208,1.304-20-1.4-9.736-4.552-13.072-14.8-11.856-24.872,1.448-11.936,11.544-19.064,23.056-19.2,3.672-0.04,13.104,0.12,14.688,4.176,0.816,2.096-0.408,5.776-1.088,7.824-6.24-2.632-13.712-5.256-20-1.04-9.528,6.392-8.88,21.472,2.4,25.632,6.904,2.544,12.608-0.688,19.184-2.192,0.056,1.896,0.872,6.96,0,8.24zm232.74-0.456c-1,1.824-3.696,2.552-5.52,3.184-5.168,1.376-11.608,1.512-16.8,0-10.176-2.648-15.872-10.088-16-20.568-0.128-11.344,4.208-20.64,16-23.872,4.744-1.304,12.056-1.32,16.8,0,1.92,0.528,4.288,1.2,5.088,3.248,0.816,2.096-0.408,5.776-1.088,7.824-6.024-2.392-12.976-5.088-19.2-1.528-13.72,7.832-7.552,28,8,27.056,4.4-0.272,8.536-2.152,12.72-3.128,0.096,1.736,0.568,6.52,0,7.784zm-195.12-41.384v8h-20.8v9.6h18.4v8.8h-18.4v10.4h21.6v8h-31.2v-44.8h30.4zm38.424,8c0.968,2.144,1.544,4.848,1.304,7.2-0.648,6.344-4.504,8.808-5.256,11.2-0.744,2.36,1.104,4.544,2.328,6.4,2.56,3.888,5.528,7.632,7.2,12,0,0-10.712-0.792-10.712-0.792s-10.256-14.392-10.256-14.392-5.432-0.816-5.432-0.816v16h-9.6v-44.8c9.768,0,25.6-2.712,30.424,8zm42.376-8v8h-13.6v36.8h-10.4v-36.8h-14.4v-8h38.4zm15.2,0v44.8h-9.6v-44.8h9.6zm38.4,0v8h-20v11.2h17.6v8h-17.6v17.6h-9.6v-44.8h29.6zm16,0v44.8h-9.6v-44.8h9.6zm61.752,10.4c3.584-9.248,2.848-10.296,8.648-10.4h6.4s16.8,44.8,16.8,44.8h-10.4c-0.592-2.608-2.104-8.904-4.336-10.384-1.768-1.176-8.496-0.85601-10.864-0.81601-1.208,0.024-2.784,0.016-3.912,0.48-4.248,1.744-3.632,7.96-6.248,9.928-1.552,1.16-6.968,0.792-9.04,0.792,1.016-6.504,10.008-26.808,12.952-34.4zm67.048-10.4v8h-14.4v36.8h-9.6v-36.8h-14.4v-8h38.4zm35.2,0v8h-20.8v9.6h18.4v8.8h-18.4v10.4h21.6v8h-31.2v-44.8h30.4zm-287.34,19.64c3.8-2.312,4.024-8.408,0-10.704-2.152-1.256-6.856-0.936-9.456-0.936v12.8c2.816,0,6.984,0.304,9.456-1.16zm188.14,5.96h12s-5.6-16-5.6-16-6.4,16-6.4,16zm140.79,17.088c-3.736,2.728-6.744,3.024-11.192,2.896-10.896-0.296-15.072-10.592-11.92-19.984,2.224-6.6,6.216-9.64,12.72-11.576,18.92-3.08,23.544,19.064,10.392,28.664zm-16.616-12.288c-0.384,5.12,3.208,9.6,8.624,8.344,9.4-2.184,12.184-19.568-1.6-17.6-4.176,1.656-6.672,4.648-7.024,9.256zm-296.98,92.464c-1.336,2-5.728,3.064-7.992,3.616-8.328,2.032-16.592,2.192-24.8-0.496-13.384-4.384-21.52-17.656-20.728-31.584,1.056-18.512,14.2-31.112,32.728-31.2,6.136-0.032,10.072,0.016,16,2.16,1.856,0.672,4.328,1.536,4.984,3.608,0.632,1.992-1.088,8.136-1.784,10.384-10.56-2.992-20.224-8.008-30.392,0-14.056,11.456-7.424,37.84,14.392,36.576,7.336-0.432,11.248-2.928,17.592-4.728,0.144,3,1.568,9.296,0,11.664zm336.01-0.176c-1.832,2.648-8.904,4.056-12,4.576-11.704,1.968-24.928,0.056-33.456-8.936-13.648-14.392-9.88-40.528,7.056-50.744,11.264-6.8,27.88-5.448,39.2,0.416,0,0-2.4,11.024-2.4,11.024-9.984-2.512-19.792-7.472-29.6,0-16.792,12.304-7.392,38.128,13.6,36.904,7.336-0.432,11.248-2.928,17.6-4.728,0.024,2.72,1.272,9.672,0,11.488zm-456.81-58.68v11.2h-28.8v14.4h25.6v11.2h-25.6v15.2h29.6v11.2h-42.4v-63.2h41.6zm22.944,0.456s5.056,5.944,5.056,5.944,9.6,14.4,9.6,14.4,8.552-14.4,8.552-14.4,5.192-5.92,5.192-5.92,14.256-0.48,14.256-0.48-14.416,21.6-14.416,21.6-5.04,8.8-5.04,8.8,5.584,9.6,5.584,9.6,15.472,23.2,15.472,23.2h-11.2c-5.888-0.104-6.24-2.56-9.336-7.2,0,0-10.664-16-10.664-16s-10.4,16.8-10.4,16.8-4.968,5.92-4.968,5.92-14.232,0.48-14.232,0.48,14.736-22.4,14.736-22.4,6.248-10.4,6.248-10.4-5.32-9.6-5.32-9.6-14.064-20.8-14.064-20.8,14.944,0.456,14.944,0.456zm150.66-0.456v11.2h-28.8v14.4h25.6v11.2h-25.6v15.2h30.4v11.2h-43.2v-63.2h41.6zm24.8,0v52h28v11.2h-41.6v-63.2h13.6zm49.6,0v52h28v11.2h-41.6v-63.2h13.6zm78.4,0v11.2h-29.6v14.4h25.6v11.2h-25.6v15.2h30.4v11.2h-43.2v-63.2h42.4zm18.4,0c7.128,0.136,8.936,5.112,12.904,10.4,0,0,23.896,32,23.896,32v-42.4h12.8v63.2h-7.2c-7.272-0.136-9.464-5.816-13.496-11.2,0,0-23.304-30.4-23.304-30.4v41.6h-12.8v-63.2h7.2zm164.8,0v11.2h-28.8v14.4h25.6s-0.816,9.92-0.816,9.92-6.384,1.28-6.384,1.28h-18.4v15.2h29.6v11.2h-43.2v-63.2h42.4z" stroke-miterlimit="4" stroke-width="0" fill="#FFF"/>
   <path d="m243.05,405.44c2.08,0,4.416,0.104,6.4-0.56,0,0,19.2-10.752,19.2-10.752,7.248-3.96,23.936-10.624,32-13.216,17.608-5.648,47.272-12.056,65.6-12.272,0,0,23.2-0.8,23.2-0.8s15.2,0.8,15.2,0.8,8,0.736,8,0.736c23.024,1.84,49.056,7.928,70.4,16.752,0,0,24,11.56,24,11.56,7.384,4,8.816,6.936,17.6,6.952h60s-15.08,28-15.08,28c-0.99201,2.328-3.464,8.048-3.488,10.4-0.032,3,7.328,13.744,9.08,17.6,5.368,11.848,9.464,26.12,9.488,39.2v8c-0.04,23.824-12.16,50.424-28.872,67.128-40.864,40.864-113.38,37.984-148.73-8.728,0,0-20,31.2-20,31.2-4.048-2.104-5.792-5.88-8.264-9.6,0,0-13.336-20.8-13.336-20.8h-1.6c-2.952,5.504-7.968,9.744-12.8,13.6-10.192,8.128-18.816,13.208-31.2,17.336-25.128,8.376-53.824,6.712-77.6-5.184-31.92-15.968-54.344-50.648-54.4-86.552-0.024-14.856,1.88-27.832,7.776-41.6,2.256-5.264,4.024-8.68,6.984-13.6,1.744-2.896,4.064-5.232,3.504-8.8-1.048-6.68-9.456-21.896-13.144-28-1.768-2.928-3.784-5.648-5.12-8.8h55.2zm200-13.936c-34.696-7.664-69.016-7.96-104-2.128-11.712,1.952-23.144,5.112-34.4,8.864-4.936,1.648-11.08,3.216-15.2,6.4,0,0,9.6,1.032,9.6,1.032,5.136,0.632,12.68,2.232,17.6,3.792,24.688,7.824,46.28,25.728,58.192,48.776,3.496,6.76,7.008,15.776,8.672,23.2,0.928,4.16,1.232,12.08,3.536,15.2,0.312-34.24,27.032-69,57.6-82.512,7.92-3.496,15.472-5.872,24-7.4,3.632-0.648,10.664-0.92,13.6-2.088-10.888-5.648-27.144-10.48-39.2-13.136zm178.14,12.784c5.76,5.176,5.12,17.616-5.336,20.52-13.856,3.84-21.608-16.744-7.2-22.848,4.336-0.896,9.056-0.816,12.536,2.328zm0.568,7.552c-1.056-6.56-8.04-9.768-13.904-5.6,4.168,0,15.072,0.12,8.8,7.2,0,0,3.2,5.6,3.2,5.6,1.208-2.376,2.352-4.424,1.904-7.2zm-13.904,8v-13.6c-5.008,4.432-5.224,9.248,0,13.6zm4-10.4v2.4h2.4v-2.4h-2.4zm0,10.4s-4,0.8-4,0.8c4.192,1.744,6.728,2.32,10.4-0.8-3.776-0.648-4.008-1.432-5.6-4.8,0,0-0.8,4.8-0.8,4.8zm-344.8,6.744c-22.136,6.216-41.352,21.048-51.288,42.056-19.984,42.232-1.096,91.512,42.488,109.12,7.096,2.864,17.144,5.184,24.8,5.28,18.224,0.208,30.472-2.072,46.4-11.56,7.112-4.24,13.552-10.208,18.968-16.44,7.128-8.192,12.416-18.392,15.432-28.8,12.24-42.216-11.032-86.432-53.6-98.968-7.552-2.224-19.384-3.928-27.2-3.208-5.544,0.8-10.496,0.976-16,2.52zm169.6,13.976c-7.288,5.544-14.736,13.84-19.512,21.68-18.552,30.488-14.568,70.712,9.984,96.8,14.296,15.184,35.936,24.32,56.728,24.792,10.456,0.232,23.192-2.544,32.8-6.616,51.288-21.768,64.92-91.064,24.728-130.04-6.496-6.304-15.608-12.44-23.928-16.016-8-3.432-18.464-6.416-27.2-6.408h-14.4c-14.952,2.4-26.984,6.52-39.2,15.808zm-106.7,40.08c14.224,28.432-2.704,65.184-34.904,70.168-13.448,2.08-27.48-0.392-38.4-8.984-25.792-20.28-26.128-60.576,1.6-79.296,6.856-4.632,11.968-6.456,20-7.936,21.536-2.76,41.72,6.088,51.704,26.048zm158.7-26.224c5.456-0.112,10.984,1.408,16,3.52,5.928,2.488,9.864,5.4,14.4,9.904,25.16,24.976,16.88,68.008-16.8,80.752-4.272,1.608-13.904,3.432-18.4,3.176-11.064-0.632-21.824-4.232-30.4-11.384-24.912-20.768-22.68-59.92,4-78.12,6.304-4.304,11.744-6.28,19.2-7.848,3.968-0.336,8.008-0.224,12,0zm-226.16,26.256c-19.832,22.144-2.296,58.056,27.76,54.136,4.824-0.624,8.6-2.024,12.8-4.472,28.584-16.648,14.424-62.704-19.2-59.864-8.416,1.28-15.464,3.616-21.36,10.2zm193.34,7.968c-10.136,20.784,4.656,45.848,28.016,46.392,5.176,0.112,8.76-0.568,13.6-2.448,4.312-1.672,7.152-3.864,10.368-7.152,20.92-21.424,4.312-57.52-25.568-54.96-11.624,1.92-21.048,7.16-26.416,18.168z" stroke="#000" stroke-width="0.80000085" fill="#000"/>
   <path d="m364.15,386.15s9.6399-0.76753,9.6399-0.76753h26.51c9.2142,0.11808,26.148,2.4628,35.346,4.3859,10.122,2.1086,19.939,4.8414,29.723,8.2658,4.4745,1.5688,11.552,3.9304,15.263,6.7476-7.254,1.0037-14.653,1.7881-21.69,3.981-25.048,7.8103-47.461,25.708-60,49.999-3.9524,7.65-6.4668,13.546-8.7402,21.93,0,0-3.5587,15.182-3.5587,15.182s-2.1288-10.121-2.1288-10.121c-1.5826-7.2621-3.9845-14.322-6.9568-21.086-10.371-23.608-30.165-42.316-52.771-52.403-5.6554-2.5219-14.789-5.1956-20.886-6.2752,0,0-12.853-2.0496-12.853-2.0496,23.481-9.8008,47.894-15.933,73.103-17.788z" stroke="#000" stroke-width="0.82314152" fill="#fbc412"/>
   <path d="m348.31,726.5c-3.3483-0.21714-10.649-1.5024-15.657-2.7566-13.032-3.2633-26.719-10.167-37.628-18.98-5.0663-4.0928-13.261-12.59-16.93-17.554-6.4287-8.6992-12.394-20.599-15.324-30.569-3.4337-11.685-3.838-14.698-3.8289-28.537,0.008-11.832,0.0958-13.04,1.3982-19.193,6.886-32.53,26.433-56.96,56.655-70.808,15.133-6.9345,32.805-9.8778,49.318-8.214,23.822,2.4004,44.409,12.041,60.813,28.479,18.562,18.6,28.694,43.074,28.663,69.231-0.0311,25.652-8.4078,47.994-24.84,66.254-14.961,16.625-34.37,27.658-54.859,31.185-7.9958,1.3766-19.646,1.9899-27.779,1.4624zm13.403-38.252c14.057-0.73561,26.96-6.5827,37.236-16.873,7.0246-7.0344,11.796-14.817,15.017-24.497,2.2958-6.8976,3.2831-12.999,3.2831-20.29,0-30.421-20.963-55.288-50.67-60.106-6.0753-0.98533-17.233-0.97302-22.633,0.025-14.341,2.6502-27.713,10.509-36.554,21.483-9.4973,11.789-13.919,25.568-13.23,41.223,0.70993,16.114,6.8222,30.213,18.034,41.599,8.0391,8.1638,15.773,12.807,25.921,15.561,5.6098,1.5225,13.441,2.5411,17.263,2.2454,0.83337-0.0644,3.6826-0.23061,6.3317-0.36925z" stroke-opacity="0" transform="matrix(0.80000083,0,0,0.80000083,1.6663697,1.0996395)" stroke-miterlimit="4" fill="#FFF"/>
   <path d="m347.3,665.94c-17.052-3.8134-29.608-18.808-30.878-36.876-0.80494-11.451,4.0259-23.473,12.613-31.387,9.7322-8.9698,26.585-12.643,38.973-8.495,10.928,3.6591,19.553,12.028,23.977,23.265,2.3113,5.8703,2.7919,8.6091,2.7919,15.91,0,5.7352-0.18792,7.4204-1.1828,10.607-4.0354,12.924-14.836,23.007-28.364,26.479-4.7852,1.2282-13.572,1.4719-17.93,0.49733z" stroke-opacity="0" transform="matrix(0.80000083,0,0,0.80000083,1.6663697,1.0996395)" stroke-miterlimit="4" fill="#FFF"/>
   <path d="m597.43,727.3c-17.706-1.5793-34.746-7.5859-49.494-17.447-22.677-15.162-38.079-40.897-41.61-69.526-0.79697-6.4617-0.36023-22.773,0.77367-28.896,4.9941-26.964,20.022-50.061,42.343-65.08,10.16-6.8361,22.592-11.848,36.555-14.738,6.2862-1.301,6.8472-1.3319,19.854-1.0936,14.909,0.2732,18.76,0.86665,30.052,4.6302,15.155,5.0514,27.706,12.957,39.648,24.974,14.679,14.771,23.261,31.906,26.582,53.076,1.117,7.1204,1.1023,21.103-0.0299,28.537-4.404,28.915-19.596,53.398-42.827,69.018-13.379,8.9959-31.47,15.158-48.693,16.584-6.6136,0.54793-6.5676,0.54807-13.153-0.0394l0.00002,0.00002zm15.239-39.083c14.195-2.3126,24.245-7.0464,33.635-15.844,11.498-10.772,18.074-24.803,19.11-40.773,0.82431-12.71-1.5443-23.58-7.5181-34.503-5.7142-10.449-14.517-19.306-24.422-24.576-9.314-4.9548-18.065-6.7978-32.275-6.7978-7.3797,0-9.5804,0.36505-17.318,2.8728-17.519,5.6777-31.878,20.089-38.153,38.291-2.4849,7.2087-3.2235,11.896-3.2235,20.456,0,17.026,5.3699,30.558,16.922,42.641,13.554,14.178,34.373,21.308,53.243,18.233z" stroke-opacity="0" transform="matrix(0.80000083,0,0,0.80000083,1.6663697,1.0996395)" stroke-miterlimit="4" fill="#FFF"/>
   <path d="m599.79,666.45c-0.69448-0.12323-2.5784-0.46186-4.1865-0.75251-13.569-2.4526-25.595-14.012-29.757-28.603-1.4415-5.0537-1.5689-14.887-0.25453-19.647,3.0524-11.054,10.543-20.385,20.182-25.141,2.5781-1.2719,7.0317-2.9076,9.9376-3.6497,4.6473-1.1869,5.9228-1.3137,10.859-1.0798,10.281,0.48719,18.339,4.2514,25.746,12.027,7.3322,7.6972,11.062,16.843,11.108,27.237,0.0497,11.208-3.7484,20.172-12.082,28.517-5.2521,5.2588-9.1375,7.5705-16.148,9.6078-4.3884,1.2753-12.291,2.0364-15.405,1.4839z" stroke-opacity="0" transform="matrix(0.80000083,0,0,0.80000083,1.6663697,1.0996395)" stroke-miterlimit="4" fill="#FFF"/>
   <path d="m299.95,492.52c7,9.28,1.68,24.08-9.888,26.104-11.672,2.048-19.504-5.864-19.184-17.336,0.096-3.728,1.024-6.64,3.496-9.528,2.88-3.368,5.936-4.368,10.088-5.296,5.664-0.664,11.96,1.376,15.488,6.056z" stroke-miterlimit="4" stroke-width="0" fill="#ef6945"/>
   <path d="m498.58,493.58c7,9.28,1.68,24.08-9.888,26.104-11.672,2.048-19.504-5.864-19.184-17.336,0.096-3.728,1.024-6.64,3.496-9.528,2.88-3.368,5.936-4.368,10.088-5.296,5.664-0.664,11.96,1.376,15.488,6.056z" stroke-miterlimit="4" stroke-width="0" fill="#16b087"/>
  </g>
 </g>
</svg>
