<?xml version="1.0" encoding="UTF-8" standalone="no"?>
<!-- Created with Inkscape (http://www.inkscape.org/) -->

<svg
   xmlns:dc="http://purl.org/dc/elements/1.1/"
   xmlns:cc="http://creativecommons.org/ns#"
   xmlns:rdf="http://www.w3.org/1999/02/22-rdf-syntax-ns#"
   xmlns:svg="http://www.w3.org/2000/svg"
   xmlns="http://www.w3.org/2000/svg"
   xmlns:sodipodi="http://sodipodi.sourceforge.net/DTD/sodipodi-0.dtd"
   xmlns:inkscape="http://www.inkscape.org/namespaces/inkscape"
   width="128"
   height="72"
   viewBox="0 0 33.866666 19.050001"
   version="1.1"
   id="svg5526"
   inkscape:version="0.92.3 (2405546, 2018-03-11)"
   sodipodi:docname="logo.svg">
  <defs
     id="defs5520" />
  <sodipodi:namedview
     id="base"
     pagecolor="#ffffff"
     bordercolor="#666666"
     borderopacity="1.0"
     inkscape:pageopacity="0.0"
     inkscape:pageshadow="2"
     inkscape:zoom="4"
     inkscape:cx="40.111917"
     inkscape:cy="0.14334381"
     inkscape:document-units="mm"
     inkscape:current-layer="text6087"
     showgrid="false"
     units="px"
     objecttolerance="1"
     inkscape:window-width="1853"
     inkscape:window-height="1016"
     inkscape:window-x="67"
     inkscape:window-y="27"
     inkscape:window-maximized="1" />
  <metadata
     id="metadata5523">
    <rdf:RDF>
      <cc:Work
         rdf:about="">
        <dc:format>image/svg+xml</dc:format>
        <dc:type
           rdf:resource="http://purl.org/dc/dcmitype/StillImage" />
        <dc:title></dc:title>
      </cc:Work>
    </rdf:RDF>
  </metadata>
  <g
     inkscape:groupmode="layer"
     id="layer6"
     inkscape:label="Insider">
    <g
       aria-label="INSIDER"
       style="font-style:normal;font-weight:normal;font-size:6.3499999px;line-height:6.61458302px;font-family:Sans;letter-spacing:0px;word-spacing:0px;fill:#000000;fill-opacity:1;stroke:none;stroke-width:0.26458332;stroke-linecap:butt;stroke-linejoin:miter;stroke-miterlimit:4;stroke-dasharray:none;stroke-opacity:1"
       id="text6087">
      <path
         d="m 3.5446227,9.0950518 h -1.0795 v -4.625975 h 1.0795 z"
         style="font-style:normal;font-variant:normal;font-weight:900;font-stretch:normal;font-size:6.3499999px;font-family:Lato;-inkscape-font-specification:'Lato, Heavy';font-variant-ligatures:normal;font-variant-caps:normal;font-variant-numeric:normal;font-feature-settings:normal;text-align:start;letter-spacing:0.79374999px;writing-mode:lr-tb;text-anchor:start;stroke:none;stroke-width:0.26458332;stroke-linejoin:miter;stroke-miterlimit:4;stroke-dasharray:none;stroke-opacity:1;paint-order:stroke fill markers"
         id="path6112"
         inkscape:connector-curvature="0" />
      <path
         d="m 5.7959952,4.4690768 q 0.06985,0 0.117475,0.00635 0.047625,0.00635 0.085725,0.0254 0.0381,0.015875 0.073025,0.047625 0.034925,0.03175 0.079375,0.085725 l 2.1971,2.778125 q -0.0127,-0.13335 -0.01905,-0.257175 -0.00635,-0.127 -0.00635,-0.238125 v -2.447925 h 0.94615 v 4.625975 h -0.5588 q -0.123825,0 -0.20955,-0.0381 -0.08255,-0.041275 -0.1651,-0.1397 l -2.181225,-2.7559 q 0.00953,0.12065 0.015875,0.238125 0.00635,0.1143 0.00635,0.2159 v 2.479675 h -0.94615 v -4.625975 z"
         style="font-style:normal;font-variant:normal;font-weight:900;font-stretch:normal;font-size:6.3499999px;font-family:Lato;-inkscape-font-specification:'Lato, Heavy';font-variant-ligatures:normal;font-variant-caps:normal;font-variant-numeric:normal;font-feature-settings:normal;text-align:start;letter-spacing:0.79374999px;writing-mode:lr-tb;text-anchor:start;stroke:none;stroke-width:0.26458332;stroke-linejoin:miter;stroke-miterlimit:4;stroke-dasharray:none;stroke-opacity:1;paint-order:stroke fill markers"
         id="path6114"
         inkscape:connector-curvature="0" />
      <path
         d="m 13.516603,5.4088768 q -0.04763,0.0762 -0.1016,0.1143 -0.0508,0.0381 -0.13335,0.0381 -0.07303,0 -0.15875,-0.04445 -0.08255,-0.047625 -0.1905,-0.104775 -0.104775,-0.05715 -0.2413,-0.1016 -0.136525,-0.047625 -0.31115,-0.047625 -0.301625,0 -0.45085,0.130175 -0.14605,0.127 -0.14605,0.346075 0,0.1397 0.0889,0.231775 0.0889,0.092075 0.231775,0.15875 0.14605,0.066675 0.3302,0.123825 0.187325,0.053975 0.381,0.123825 0.193675,0.066675 0.377825,0.15875 0.187325,0.092075 0.3302,0.23495 0.14605,0.142875 0.23495,0.34925 0.0889,0.2032 0.0889,0.492125 0,0.320675 -0.111125,0.600075 -0.111125,0.2794 -0.32385,0.48895 -0.20955,0.206375 -0.5207,0.327025 -0.307975,0.117475 -0.701675,0.117475 -0.2159,0 -0.441325,-0.04445 -0.22225,-0.04445 -0.4318,-0.123825 -0.20955,-0.08255 -0.3937,-0.193675 -0.18415,-0.111125 -0.320675,-0.24765 l 0.3175,-0.50165 q 0.0381,-0.053975 0.09842,-0.0889 0.0635,-0.0381 0.136525,-0.0381 0.09525,0 0.1905,0.060325 0.09842,0.060325 0.219075,0.13335 0.123825,0.073025 0.282575,0.13335 0.15875,0.060325 0.37465,0.060325 0.2921,0 0.454025,-0.127 0.161925,-0.130175 0.161925,-0.409575 0,-0.161925 -0.0889,-0.263525 -0.0889,-0.1016 -0.23495,-0.168275 -0.142875,-0.066675 -0.327025,-0.117475 -0.18415,-0.0508 -0.377825,-0.111125 -0.193675,-0.0635 -0.377825,-0.1524 -0.18415,-0.092075 -0.3302,-0.238125 -0.142875,-0.149225 -0.231775,-0.3683 -0.0889,-0.22225 -0.0889,-0.5461 0,-0.26035 0.104775,-0.508 0.104775,-0.24765 0.307975,-0.441325 0.2032,-0.193675 0.498475,-0.307975 0.295275,-0.117475 0.676275,-0.117475 0.212725,0 0.41275,0.034925 0.2032,0.03175 0.384175,0.098425 0.180975,0.0635 0.33655,0.155575 0.15875,0.0889 0.282575,0.2032 z"
         style="font-style:normal;font-variant:normal;font-weight:900;font-stretch:normal;font-size:6.3499999px;font-family:Lato;-inkscape-font-specification:'Lato, Heavy';font-variant-ligatures:normal;font-variant-caps:normal;font-variant-numeric:normal;font-feature-settings:normal;text-align:start;letter-spacing:0.79374999px;writing-mode:lr-tb;text-anchor:start;stroke:none;stroke-width:0.26458332;stroke-linejoin:miter;stroke-miterlimit:4;stroke-dasharray:none;stroke-opacity:1;paint-order:stroke fill markers"
         id="path6116"
         inkscape:connector-curvature="0" />
      <path
         d="m 16.356243,9.0950518 h -1.0795 v -4.625975 h 1.0795 z"
         style="font-style:normal;font-variant:normal;font-weight:900;font-stretch:normal;font-size:6.3499999px;font-family:Lato;-inkscape-font-specification:'Lato, Heavy';font-variant-ligatures:normal;font-variant-caps:normal;font-variant-numeric:normal;font-feature-settings:normal;text-align:start;letter-spacing:0.79374999px;writing-mode:lr-tb;text-anchor:start;stroke:none;stroke-width:0.26458332;stroke-linejoin:miter;stroke-miterlimit:4;stroke-dasharray:none;stroke-opacity:1;paint-order:stroke fill markers"
         id="path6118"
         inkscape:connector-curvature="0" />
      <path
         d="m 22.239817,6.7804768 q 0,0.50165 -0.174625,0.9271 -0.17145,0.422275 -0.485775,0.733425 -0.314325,0.307975 -0.758825,0.4826 -0.441325,0.17145 -0.981075,0.17145 h -1.79705 v -4.625975 h 1.79705 q 0.53975,0 0.981075,0.174625 0.4445,0.174625 0.758825,0.4826 0.314325,0.307975 0.485775,0.733425 0.174625,0.422275 0.174625,0.92075 z m -1.09855,0 q 0,-0.3429 -0.0889,-0.619125 -0.0889,-0.276225 -0.257175,-0.466725 -0.1651,-0.193675 -0.4064,-0.295275 -0.2413,-0.104775 -0.549275,-0.104775 h -0.71755 v 2.974975 h 0.71755 q 0.307975,0 0.549275,-0.1016 0.2413,-0.104775 0.4064,-0.295275 0.168275,-0.193675 0.257175,-0.4699 0.0889,-0.276225 0.0889,-0.6223 z"
         style="font-style:normal;font-variant:normal;font-weight:900;font-stretch:normal;font-size:6.3499999px;font-family:Lato;-inkscape-font-specification:'Lato, Heavy';font-variant-ligatures:normal;font-variant-caps:normal;font-variant-numeric:normal;font-feature-settings:normal;text-align:start;letter-spacing:0.79374999px;writing-mode:lr-tb;text-anchor:start;stroke:none;stroke-width:0.26458332;stroke-linejoin:miter;stroke-miterlimit:4;stroke-dasharray:none;stroke-opacity:1;paint-order:stroke fill markers"
         id="path6120"
         inkscape:connector-curvature="0" />
      <path
         d="m 26.65128,4.4690768 v 0.8255 h -1.89865 v 1.0795 h 1.45415 v 0.79375 h -1.45415 v 1.101725 h 1.89865 v 0.8255 h -2.978149 v -4.625975 z"
         style="font-style:normal;font-variant:normal;font-weight:900;font-stretch:normal;font-size:6.3499999px;font-family:Lato;-inkscape-font-specification:'Lato, Heavy';font-variant-ligatures:normal;font-variant-caps:normal;font-variant-numeric:normal;font-feature-settings:normal;text-align:start;letter-spacing:0.79374999px;writing-mode:lr-tb;text-anchor:start;stroke:none;stroke-width:0.26458332;stroke-linejoin:miter;stroke-miterlimit:4;stroke-dasharray:none;stroke-opacity:1;paint-order:stroke fill markers"
         id="path6122"
         inkscape:connector-curvature="0" />
      <path
         d="m 29.173918,7.3837268 v 1.711325 h -1.07315 v -4.625975 h 1.50495 q 0.50165,0 0.854075,0.104775 0.3556,0.1016 0.57785,0.28575 0.225425,0.18415 0.327025,0.434975 0.1016,0.250825 0.1016,0.5461 0,0.225425 -0.06032,0.42545 -0.06032,0.200025 -0.180975,0.371475 -0.117475,0.168275 -0.2921,0.301625 -0.17145,0.13335 -0.396875,0.219075 0.10795,0.053975 0.200025,0.136525 0.09207,0.079375 0.1651,0.1905 l 0.98425,1.609725 h -0.97155 q -0.269875,0 -0.38735,-0.2032 l -0.76835,-1.343025 q -0.05398,-0.085725 -0.12065,-0.123825 -0.06668,-0.041275 -0.1905,-0.041275 z m 0,-0.739775 h 0.4318 q 0.219075,0 0.371475,-0.053975 0.155575,-0.05715 0.254,-0.155575 0.09842,-0.098425 0.142875,-0.2286 0.04445,-0.13335 0.04445,-0.28575 0,-0.3048 -0.200025,-0.47625 -0.19685,-0.17145 -0.612775,-0.17145 h -0.4318 z"
         style="font-style:normal;font-variant:normal;font-weight:900;font-stretch:normal;font-size:6.3499999px;font-family:Lato;-inkscape-font-specification:'Lato, Heavy';font-variant-ligatures:normal;font-variant-caps:normal;font-variant-numeric:normal;font-feature-settings:normal;text-align:start;letter-spacing:0.79374999px;writing-mode:lr-tb;text-anchor:start;stroke:none;stroke-width:0.26458332;stroke-linejoin:miter;stroke-miterlimit:4;stroke-dasharray:none;stroke-opacity:1;paint-order:stroke fill markers"
         id="path6124"
         inkscape:connector-curvature="0" />
    </g>
  </g>
  <g
     inkscape:label="Layer 1"
     inkscape:groupmode="layer"
     id="layer1"
     transform="translate(0,-277.95)" />
  <g
     inkscape:groupmode="layer"
     id="layer5"
     inkscape:label="Border"
     style="display:inline">
    <rect
       style="opacity:1;fill:none;fill-opacity:1;stroke:#e4164a;stroke-width:0.81917185;stroke-linejoin:miter;stroke-miterlimit:4;stroke-dasharray:none;stroke-dashoffset:0;stroke-opacity:1;paint-order:normal"
       id="rect6072"
       width="33.047493"
       height="18.230827"
       x="0.40958592"
       y="0.40958676"
       ry="0" />
  </g>
</svg>
