<!-- Generated by IcoMoon.io -->
<svg version="1.1" xmlns="http://www.w3.org/2000/svg" width="24" height="24" viewBox="0 0 24 24">
<title>tripadvisor</title>
<path fill="#fff" d="M23.011 9.532c0.281-1.207 1.175-2.416 1.175-2.416h-4.012c-2.251-1.455-4.981-2.226-8.013-2.226-3.14 0-5.978 0.78-8.214 2.251h-3.761s0.885 1.186 1.17 2.386c-0.732 1.007-1.167 2.222-1.167 3.557 0 3.316 2.697 6.008 6.012 6.008 1.891 0 3.571-0.885 4.681-2.254l1.275 1.916 1.291-1.936c0.57 0.736 1.32 1.336 2.205 1.74 1.455 0.66 3.092 0.736 4.592 0.18 3.106-1.154 4.696-4.621 3.556-7.726-0.209-0.556-0.48-1.051-0.81-1.485l0.020 0.005zM19.84 17.604c-1.2 0.445-2.505 0.395-3.67-0.143-0.824-0.383-1.503-0.982-1.988-1.727-0.201-0.299-0.375-0.623-0.503-0.971-0.146-0.395-0.22-0.803-0.259-1.215-0.074-0.832 0.045-1.673 0.405-2.453 0.54-1.164 1.501-2.051 2.701-2.496 2.49-0.914 5.25 0.361 6.166 2.841 0.916 2.481-0.36 5.245-2.835 6.163h-0.017zM10.172 15.77c-0.863 1.271-2.322 2.113-3.973 2.113-2.646 0-4.801-2.156-4.801-4.797s2.156-4.802 4.801-4.802 4.798 2.161 4.798 4.802c0 0.164-0.030 0.314-0.048 0.479-0.081 0.811-0.341 1.576-0.777 2.221v-0.016zM3.15 13.023c0 1.641 1.336 2.971 2.971 2.971s2.968-1.33 2.968-2.971c0-1.635-1.333-2.964-2.966-2.964-1.636 0-2.971 1.329-2.971 2.964h-0.002zM15.198 13.023c0 1.641 1.329 2.971 2.968 2.971 1.636 0 2.965-1.33 2.965-2.971 0-1.635-1.329-2.964-2.965-2.964-1.635 0-2.971 1.329-2.971 2.964h0.003zM4.176 13.023c0-1.071 0.869-1.943 1.936-1.943 1.064 0 1.949 0.873 1.949 1.943 0 1.076-0.869 1.951-1.949 1.951-1.081 0-1.951-0.875-1.951-1.951h0.015zM16.209 13.023c0-1.071 0.869-1.943 1.949-1.943 1.066 0 1.937 0.873 1.937 1.943 0 1.076-0.87 1.951-1.952 1.951-1.079 0-1.949-0.875-1.949-1.951h0.015zM12.156 5.94c2.161 0 4.111 0.389 5.822 1.162-0.645 0.018-1.275 0.131-1.906 0.36-1.515 0.555-2.715 1.665-3.375 3.125-0.315 0.66-0.48 1.359-0.541 2.065-0.225-3.076-2.76-5.515-5.881-5.578 1.711-0.734 3.692-1.134 5.837-1.134h0.044z"></path>
</svg>
