<svg style="position: absolute; width: 0; height: 0;" width="0" height="0" version="1.1" xmlns="http://www.w3.org/2000/svg" xmlns:xlink="http://www.w3.org/1999/xlink">
<defs>
<symbol id="icon-phone" viewBox="0 0 32 32">
<title>phone</title>
<path class="path1" d="M22 20c-2 2-2 4-4 4s-4-2-6-4-4-4-4-6 2-2 4-4-4-8-6-8-6 6-6 6c0 4 4.109 12.109 8 16s12 8 16 8c0 0 6-4 6-6s-6-8-8-6z"></path>
</symbol>
<symbol id="icon-mail2" viewBox="0 0 32 32">
<title>mail2</title>
<path class="path1" d="M26.667 0h-21.333c-2.934 0-5.334 2.4-5.334 5.334v21.332c0 2.936 2.4 5.334 5.334 5.334h21.333c2.934 0 5.333-2.398 5.333-5.334v-21.332c0-2.934-2.399-5.334-5.333-5.334zM26.667 4c0.25 0 0.486 0.073 0.688 0.198l-11.355 9.388-11.355-9.387c0.202-0.125 0.439-0.198 0.689-0.198h21.333zM5.334 28c-0.060 0-0.119-0.005-0.178-0.013l7.051-9.78-0.914-0.914-7.293 7.293v-19.098l12 14.512 12-14.512v19.098l-7.293-7.293-0.914 0.914 7.051 9.78c-0.058 0.008-0.117 0.013-0.177 0.013h-21.333z"></path>
</symbol>
<symbol id="icon-facebook" viewBox="0 0 32 32">
<title>Share on facebook</title>
<path class="path1" d="M19 6h5v-6h-5c-3.86 0-7 3.14-7 7v3h-4v6h4v16h6v-16h5l1-6h-6v-3c0-0.542 0.458-1 1-1z"></path>
</symbol>
<symbol id="icon-twitter" viewBox="0 0 32 32">
<title>Share on Twitter</title>
<path class="path1" d="M32 7.075c-1.175 0.525-2.444 0.875-3.769 1.031 1.356-0.813 2.394-2.1 2.887-3.631-1.269 0.75-2.675 1.3-4.169 1.594-1.2-1.275-2.906-2.069-4.794-2.069-3.625 0-6.563 2.938-6.563 6.563 0 0.512 0.056 1.012 0.169 1.494-5.456-0.275-10.294-2.888-13.531-6.862-0.563 0.969-0.887 2.1-0.887 3.3 0 2.275 1.156 4.287 2.919 5.463-1.075-0.031-2.087-0.331-2.975-0.819 0 0.025 0 0.056 0 0.081 0 3.181 2.263 5.838 5.269 6.437-0.55 0.15-1.131 0.231-1.731 0.231-0.425 0-0.831-0.044-1.237-0.119 0.838 2.606 3.263 4.506 6.131 4.563-2.25 1.762-5.075 2.813-8.156 2.813-0.531 0-1.050-0.031-1.569-0.094 2.913 1.869 6.362 2.95 10.069 2.95 12.075 0 18.681-10.006 18.681-18.681 0-0.287-0.006-0.569-0.019-0.85 1.281-0.919 2.394-2.075 3.275-3.394z"></path>
</symbol>
<symbol id="icon-tripadvisor" viewBox="0 0 36 28">
<title>See out Tripadvisor reviews</title>
<path d="M10.172 15.578c0 0.812-0.656 1.469-1.453 1.469-0.812 0-1.469-0.656-1.469-1.469 0-0.797 0.656-1.453 1.469-1.453 0.797 0 1.453 0.656 1.453 1.453zM28.203 15.563c0 0.812-0.656 1.469-1.469 1.469s-1.469-0.656-1.469-1.469 0.656-1.453 1.469-1.453 1.469 0.641 1.469 1.453zM11.953 15.578c0-1.656-1.359-3.016-3.016-3.016-1.672 0-3.016 1.359-3.016 3.016 0 1.672 1.344 3.016 3.016 3.016 1.656 0 3.016-1.344 3.016-3.016zM29.969 15.563c0-1.656-1.344-3.016-3.016-3.016-1.656 0-3.016 1.359-3.016 3.016 0 1.672 1.359 3.016 3.016 3.016 1.672 0 3.016-1.344 3.016-3.016zM13.281 15.578c0 2.406-1.937 4.359-4.344 4.359s-4.359-1.953-4.359-4.359c0-2.391 1.953-4.344 4.359-4.344s4.344 1.953 4.344 4.344zM31.313 15.563c0 2.406-1.953 4.344-4.359 4.344-2.391 0-4.344-1.937-4.344-4.344s1.953-4.344 4.344-4.344c2.406 0 4.359 1.937 4.359 4.344zM16.25 15.609c0-3.984-3.234-7.219-7.219-7.219-3.969 0-7.203 3.234-7.203 7.219s3.234 7.219 7.203 7.219c3.984 0 7.219-3.234 7.219-7.219zM26.688 6.656c-2.578-1.125-5.484-1.734-8.687-1.734s-6.391 0.609-8.953 1.719c4.953 0.016 8.953 4.016 8.953 8.969 0-4.859 3.859-8.813 8.687-8.953zM34.172 15.609c0-3.984-3.219-7.219-7.203-7.219s-7.219 3.234-7.219 7.219 3.234 7.219 7.219 7.219 7.203-3.234 7.203-7.219zM30.016 6.766h5.984c-0.938 1.094-1.625 2.562-1.797 3.578 1.078 1.484 1.719 3.297 1.719 5.266 0 4.953-4.016 8.953-8.953 8.953-2.812 0-5.313-1.281-6.953-3.297 0 0-0.734 0.875-2.016 2.797-0.219-0.453-1.328-2.031-2-2.812-1.641 2.031-4.156 3.313-6.969 3.313-4.937 0-8.953-4-8.953-8.953 0-1.969 0.641-3.781 1.719-5.266-0.172-1.016-0.859-2.484-1.797-3.578h5.703c3.063-2.047 7.516-3.328 12.297-3.328s8.953 1.281 12.016 3.328z"></path>
</symbol>
</defs>
</svg>
